<?xml version="1.0" standalone="no"?>
<!DOCTYPE svg PUBLIC "-//W3C//DTD SVG 20010904//EN"
 "http://www.w3.org/TR/2001/REC-SVG-20010904/DTD/svg10.dtd">
<svg version="1.0" xmlns="http://www.w3.org/2000/svg"
 width="642.000000pt" height="642.000000pt" viewBox="0 0 642.000000 642.000000"
 preserveAspectRatio="xMidYMid meet">
<metadata>
Created by potrace 1.14, written by Peter Selinger 2001-2017
</metadata>
<g transform="translate(0.000000,642.000000) scale(0.100000,-0.100000)"
fill="#000000" stroke="none">
<path d="M2500 5779 c-19 -4 -97 -7 -172 -5 -76 2 -138 0 -138 -3 0 -7 -349
-4 -427 3 -30 3 -55 1 -59 -5 -3 -5 -14 -7 -25 -4 -29 10 -188 14 -193 6 -6
-9 -80 -6 -96 4 -7 4 -15 4 -19 -1 -10 -14 -32 -16 -46 -4 -9 8 -14 8 -17 -1
-3 -9 -9 -9 -25 0 -12 6 -24 7 -27 3 -6 -10 -36 -9 -52 1 -6 3 -14 4 -17 0 -9
-8 -100 -9 -114 0 -6 4 -14 4 -17 -1 -3 -5 -33 -5 -68 0 -65 8 -158 -6 -158
-23 0 -6 -6 -9 -13 -7 -16 4 -65 -37 -95 -79 -13 -18 -32 -33 -43 -33 -10 0
-19 -5 -19 -10 0 -11 -131 -143 -146 -147 -5 -2 -10 -7 -10 -13 -1 -5 -2 -14
-3 -20 0 -5 -6 -10 -12 -10 -14 0 -39 -26 -39 -40 0 -6 -4 -8 -10 -5 -5 3 -15
-4 -21 -17 -5 -13 -23 -29 -39 -36 -15 -7 -36 -24 -45 -38 -16 -25 -16 -25 7
-13 13 7 32 14 42 16 11 2 25 8 31 13 7 6 23 5 43 -2 24 -9 37 -9 57 0 17 8
32 9 39 4 12 -10 52 -10 62 1 4 4 13 2 20 -4 8 -6 14 -6 18 0 4 6 16 5 32 -4
27 -14 58 -10 48 6 -3 5 5 5 18 0 13 -4 91 -6 173 -4 183 4 165 4 310 4 66 0
134 1 150 3 17 1 34 0 40 -3 21 -11 285 -11 285 0 0 8 4 8 13 2 21 -17 55 -22
61 -8 5 13 84 14 104 1 6 -3 22 -1 36 5 20 9 29 9 41 -1 9 -8 20 -9 28 -4 6 5
26 8 42 6 49 -4 76 -3 92 6 9 6 31 3 56 -5 30 -10 78 -13 177 -11 74 2 140 7
146 11 6 3 40 4 75 0 77 -7 84 -7 129 1 19 3 39 1 46 -5 7 -6 21 -6 37 0 14 5
28 7 31 3 4 -3 17 -7 29 -9 38 -6 47 -12 47 -32 0 -11 9 -23 20 -26 18 -6 20
-13 16 -55 -2 -27 -7 -54 -11 -60 -3 -5 -2 -10 3 -10 9 0 9 -35 -3 -144 -3
-27 0 -54 5 -62 14 -16 8 -63 -10 -74 -10 -6 -11 -15 -3 -37 15 -39 16 -90 2
-114 -7 -15 -7 -24 1 -34 6 -7 11 -42 10 -77 -1 -35 1 -73 4 -86 3 -13 0 -34
-6 -48 -8 -18 -8 -31 0 -49 7 -16 8 -25 2 -25 -6 0 -8 -11 -6 -25 3 -14 0 -39
-5 -57 -5 -21 -5 -36 1 -42 14 -14 13 -63 -2 -68 -7 -3 -8 -9 -3 -19 5 -8 10
-19 11 -25 1 -6 5 -22 9 -34 6 -19 4 -22 -9 -17 -12 5 -15 3 -9 -6 14 -22 17
-78 11 -230 -2 -55 0 -101 5 -104 4 -2 5 -9 1 -14 -13 -21 -14 -66 -3 -112 9
-40 9 -51 -2 -58 -11 -7 -11 -9 -1 -9 8 0 10 -5 6 -12 -11 -18 -15 -61 -7 -78
12 -26 11 -94 -1 -109 -8 -11 -8 -15 0 -18 8 -3 10 -23 7 -61 -3 -31 -4 -91
-3 -132 3 -74 2 -180 -3 -232 -1 -16 -6 -28 -12 -28 -5 0 -2 -5 8 -11 19 -11
23 -44 6 -55 -7 -4 -9 -24 -6 -54 3 -26 1 -52 -4 -57 -6 -6 -6 -19 0 -36 12
-31 11 -110 -2 -118 -6 -4 -3 -19 6 -37 13 -27 13 -33 1 -43 -15 -13 -20 -44
-5 -34 16 9 19 -7 11 -70 -4 -33 -4 -64 0 -69 5 -4 4 -21 0 -36 -5 -18 -4 -32
3 -39 8 -8 8 -11 -1 -11 -11 0 -9 -81 4 -101 3 -5 0 -9 -5 -9 -7 0 -9 -31 -5
-92 3 -51 5 -97 5 -103 0 -5 -1 -56 -3 -112 -2 -57 0 -103 4 -103 4 0 3 -12
-2 -26 -6 -14 -7 -30 -4 -36 11 -18 6 -179 -7 -194 -7 -8 -7 -14 -1 -14 13 0
17 -135 6 -174 -4 -13 -2 -16 6 -11 9 5 10 1 5 -16 -3 -13 -9 -32 -11 -41 -3
-11 0 -18 8 -18 10 0 10 -2 -1 -9 -8 -5 -11 -16 -7 -29 9 -26 9 -210 1 -280
-5 -42 -4 -51 7 -47 8 3 19 19 25 35 7 18 18 30 30 30 17 0 18 10 17 124 -1
67 -4 128 -7 133 -4 6 -1 16 7 22 9 8 12 27 9 59 -9 101 -9 132 -2 132 5 0 6
15 3 33 -10 63 -12 253 -3 307 5 30 5 57 1 60 -12 7 -10 144 1 151 6 5 6 21 0
47 -7 29 -7 44 0 51 8 8 8 20 0 41 -9 25 -9 30 3 30 11 0 12 5 5 18 -12 23
-16 73 -6 95 4 10 3 40 -2 66 -5 27 -6 58 -1 71 5 14 4 28 -2 35 -8 9 -8 15 0
20 6 3 7 11 3 18 -10 17 -12 126 -1 133 5 3 5 11 -2 19 -7 8 -8 27 -3 51 9 41
9 58 -1 212 -3 57 -2 92 4 92 6 0 10 7 10 15 0 8 -4 15 -10 15 -13 0 -13 47 0
55 6 4 8 14 5 23 -2 10 -6 31 -8 48 -2 17 -7 36 -11 43 -4 6 0 14 9 17 10 4
12 9 7 13 -7 4 -7 23 -1 56 8 42 7 52 -7 62 -9 6 -13 17 -9 24 12 18 17 95 11
169 -2 25 1 50 6 57 5 7 7 20 4 30 -11 35 -16 332 -6 338 6 4 5 14 -5 27 -10
15 -11 25 -4 34 5 6 9 16 8 20 -1 5 1 17 6 27 4 10 2 23 -4 31 -8 10 -8 21 -1
42 8 21 8 34 -1 52 -10 17 -10 35 -3 73 9 40 8 52 -4 61 -11 10 -12 14 0 22
15 13 21 65 9 80 -9 13 -8 92 2 102 4 4 1 14 -6 22 -9 12 -9 16 1 19 6 3 9 9
6 15 -11 17 -12 78 -2 78 5 0 6 10 2 23 -4 12 -9 121 -11 242 -1 121 -3 225
-3 230 -4 36 12 171 22 193 21 41 64 67 116 68 26 0 50 2 55 3 17 6 74 4 85
-2 6 -4 13 -3 17 3 4 6 12 7 18 3 15 -9 60 -10 67 -2 3 4 26 3 52 -1 27 -4 45
-3 42 2 -9 13 42 4 60 -11 15 -13 21 -8 17 13 -1 5 6 5 16 1 25 -11 192 -15
198 -5 3 4 20 4 39 0 19 -4 38 -5 41 -2 9 9 96 10 148 2 26 -4 50 -4 52 0 4 6
63 5 125 -4 14 -2 33 1 43 6 10 5 24 6 30 1 7 -5 80 -7 162 -6 154 2 199 2
273 -1 24 -1 45 1 47 4 2 4 27 4 54 0 32 -4 52 -2 55 4 3 7 11 4 19 -7 13 -15
16 -15 27 -2 7 8 17 12 23 8 6 -4 33 -5 59 -4 34 2 48 -1 48 -11 0 -8 3 -9 8
-3 10 14 182 14 182 0 0 -6 3 -7 8 0 9 13 62 18 182 16 36 -1 82 1 103 3 20 2
37 0 37 -5 0 -5 20 -8 45 -6 38 3 45 0 45 -15 0 -11 7 -18 19 -18 29 0 34 -29
36 -190 1 -80 5 -155 9 -167 4 -12 3 -24 -2 -27 -9 -5 -6 -141 3 -156 4 -6 2
-10 -3 -10 -5 0 -9 -39 -9 -87 0 -49 -1 -97 -1 -108 -2 -54 5 -173 12 -183 4
-7 4 -12 -1 -12 -4 0 -8 -21 -7 -47 0 -27 -3 -60 -7 -75 -4 -16 -4 -28 0 -28
4 0 7 -33 6 -72 0 -40 4 -79 10 -87 7 -11 7 -13 -1 -8 -14 8 -26 -17 -14 -29
14 -16 21 -92 8 -96 -7 -3 -6 -12 6 -30 15 -22 15 -26 2 -31 -16 -6 -17 -71
-2 -95 4 -7 2 -12 -4 -12 -5 0 -9 -13 -8 -30 1 -16 6 -30 11 -30 5 0 5 -9 2
-20 -4 -12 -9 -37 -11 -57 -3 -20 -7 -39 -9 -43 -2 -4 2 -16 10 -26 16 -21 20
-48 6 -40 -10 6 -9 -19 0 -29 3 -3 2 -32 -3 -66 -5 -33 -6 -68 -2 -77 11 -25
11 -35 2 -54 -5 -11 -5 -18 1 -18 6 0 8 -6 6 -12 -8 -22 -13 -78 -6 -78 3 0 5
-19 3 -42 -7 -110 -7 -228 -1 -228 4 0 6 -19 3 -42 -11 -100 -12 -246 -3 -287
5 -24 6 -47 2 -50 -10 -7 -11 -191 -1 -191 4 0 5 -26 2 -57 -3 -49 -5 -117 -4
-218 0 -37 1 -80 4 -130 1 -32 -3 -55 -11 -64 -9 -9 -10 -17 -4 -25 6 -7 7
-26 1 -49 -4 -21 -4 -39 1 -43 5 -3 7 -15 5 -27 -2 -12 0 -34 5 -49 4 -15 4
-30 -1 -33 -11 -7 -10 -104 1 -111 13 -7 2 -126 -13 -135 -10 -7 -8 -9 6 -9
15 0 17 -5 11 -22 -4 -13 -7 -36 -6 -52 0 -16 -4 -36 -10 -43 -8 -8 -8 -13 -1
-13 5 0 9 -15 8 -32 -1 -18 1 -51 5 -73 4 -22 4 -44 1 -50 -11 -17 -11 -39 -1
-51 6 -7 6 -27 0 -52 -5 -23 -6 -56 -2 -74 7 -32 -3 -65 -24 -80 -6 -5 -6 -11
2 -19 9 -9 19 -4 42 22 17 18 31 37 31 41 0 5 6 8 13 8 6 0 23 14 36 30 13 17
32 30 42 30 11 0 19 7 19 16 0 9 20 36 45 60 25 23 45 47 45 53 0 5 18 17 40
27 23 11 40 25 42 37 2 11 12 25 23 31 10 6 27 21 37 33 10 12 27 25 38 28 26
8 77 167 60 190 -4 6 -7 26 -7 46 0 19 -2 40 -6 45 -3 6 0 22 8 37 11 21 11
26 0 31 -14 5 -10 41 7 63 6 7 6 19 0 30 -5 10 -8 26 -7 36 2 9 -1 17 -7 17
-7 0 -7 4 -1 13 5 7 9 122 8 270 0 142 2 260 6 263 9 5 -2 107 -13 121 -5 6
-5 14 0 17 9 5 8 283 -1 293 -3 3 0 14 6 24 10 16 9 21 -3 29 -8 5 -10 10 -5
10 12 0 13 129 2 148 -5 6 -4 12 1 12 5 0 9 16 9 35 0 19 -4 35 -9 35 -5 0 -6
5 -2 11 11 19 13 183 2 197 -6 6 -6 12 -1 12 9 0 10 216 1 225 -3 3 -2 25 2
50 4 24 3 48 -2 53 -6 6 -3 16 7 26 9 9 12 16 6 16 -6 0 -11 7 -11 15 0 8 6
15 13 15 8 0 8 3 1 8 -12 8 -13 141 -1 159 4 7 4 21 -1 30 -11 22 -10 293 1
311 5 6 4 12 -1 12 -4 0 -8 158 -7 358 0 196 -3 365 -7 375 -5 9 -5 17 -1 17
4 0 7 123 7 272 -1 193 2 275 10 280 8 6 8 8 0 8 -7 0 -11 31 -10 90 1 50 -3
90 -8 90 -5 0 -3 7 4 15 28 33 -12 144 -52 145 -9 0 -18 6 -21 13 -3 9 -7 9
-19 -1 -9 -7 -19 -9 -22 -4 -3 5 -21 8 -41 5 -20 -2 -35 1 -35 7 0 5 -7 10
-16 10 -13 0 -14 -3 -4 -15 10 -12 7 -13 -17 -7 -15 4 -44 6 -63 5 -100 -6
-126 -9 -137 -16 -6 -4 -14 -3 -18 3 -3 5 -17 7 -31 4 -16 -4 -24 -2 -24 6 0
9 -3 10 -14 1 -11 -9 -81 -9 -106 0 -3 1 -9 0 -15 -1 -18 -5 -200 -6 -209 -2
-13 7 -325 6 -332 -1 -3 -3 -17 1 -30 10 -20 12 -25 13 -29 2 -5 -14 -73 -18
-93 -5 -6 3 -13 2 -17 -3 -3 -6 -64 -8 -153 -4 -151 5 -222 6 -257 2 -11 -1
-42 1 -70 4 -27 3 -54 2 -60 -2 -5 -5 -36 -5 -67 -2 -37 5 -59 3 -61 -3 -3 -7
-9 -7 -18 1 -9 7 -20 8 -29 3 -14 -8 -125 -4 -141 5 -4 3 -10 1 -13 -4 -4 -5
-48 -7 -104 -4 -142 7 -232 7 -239 -1 -3 -3 -16 -6 -28 -6 -21 0 -105 -77
-105 -97 0 -17 -31 -25 -47 -11 -9 7 -13 22 -10 38 7 33 -6 55 -27 47 -9 -4
-16 -2 -16 4 0 20 -58 31 -172 32 -65 1 -118 0 -118 -3 0 -5 -219 -5 -230 0
-5 2 -98 1 -229 -1 -29 0 -58 4 -64 10 -6 6 -13 11 -16 10 -4 -1 -22 -5 -41
-10z"/>
<path d="M627 5154 c-3 -3 -43 -7 -88 -9 l-84 -3 -36 -42 c-35 -40 -35 -42
-28 -98 7 -49 11 -117 9 -172 0 -8 -2 -78 -3 -155 -1 -77 -6 -146 -10 -152 -5
-7 -4 -13 1 -13 9 0 7 -82 -2 -107 -3 -8 1 -16 9 -19 8 -4 12 -11 8 -17 -11
-17 -10 -167 0 -167 5 0 3 -7 -4 -17 -11 -13 -11 -17 -1 -20 6 -3 10 -9 7 -13
-5 -8 -18 -239 -15 -265 1 -5 2 -27 4 -48 2 -20 6 -40 9 -43 3 -4 0 -19 -8
-35 -8 -15 -11 -30 -7 -33 5 -3 7 -24 6 -48 -1 -24 3 -46 9 -50 9 -6 9 -8 0
-8 -13 0 -13 -246 0 -267 4 -7 3 -14 -2 -17 -5 -4 -7 -25 -5 -49 7 -60 7 -69
-1 -93 -9 -27 21 -60 40 -44 10 8 15 8 21 -2 5 -8 10 -3 15 16 5 17 3 35 -4
47 -8 14 -9 21 0 30 7 7 8 21 3 41 -7 21 -5 30 5 34 9 4 12 21 11 54 -2 37 0
47 11 43 7 -3 13 0 13 6 0 7 -7 14 -15 17 -26 10 -16 24 18 24 l32 1 -35 19
c-22 12 -28 19 -17 20 21 0 22 9 1 24 -23 17 -8 47 21 40 13 -3 26 -1 29 5 5
7 -3 11 -19 11 -21 0 -26 4 -21 16 4 9 1 23 -6 31 -16 19 -19 43 -6 43 15 0
43 32 43 49 0 9 7 16 15 17 8 1 17 2 20 3 3 1 17 4 33 6 18 2 27 -1 27 -11 0
-8 6 -14 13 -14 8 0 7 -4 -3 -10 -8 -5 -23 -7 -32 -4 -13 4 -18 0 -18 -15 0
-13 7 -21 18 -22 40 -3 45 -5 49 -16 3 -7 0 -13 -6 -13 -6 0 -11 -7 -11 -16 0
-8 -4 -13 -10 -9 -5 3 -7 12 -3 20 3 8 0 15 -6 15 -6 0 -11 -7 -11 -15 0 -9
-10 -20 -22 -25 -21 -8 -22 -9 -3 -10 11 -1 35 -1 53 0 21 1 34 -4 38 -14 3
-9 14 -16 23 -16 14 0 14 -2 1 -10 -11 -7 -6 -8 18 -4 21 4 32 3 32 -5 0 -6
-4 -11 -10 -11 -5 0 -10 -5 -10 -11 0 -5 4 -7 10 -4 14 9 13 -8 -2 -23 -9 -9
-9 -12 0 -12 7 0 12 -5 12 -11 0 -5 -4 -8 -9 -4 -5 3 -12 1 -15 -4 -3 -5 1
-11 9 -15 8 -3 15 -14 15 -24 0 -10 5 -23 12 -30 9 -9 9 -12 0 -12 -6 0 -15 7
-20 16 -6 11 -11 13 -16 5 -4 -6 -2 -11 3 -11 6 0 11 -11 11 -25 0 -14 7 -28
16 -32 12 -4 14 -14 10 -39 -4 -19 -2 -35 4 -39 6 -3 7 -11 4 -17 -6 -10 -27
19 -40 55 -8 21 -11 20 -49 -2 -29 -17 -48 -61 -26 -61 6 0 11 8 11 17 0 14 3
13 20 -5 12 -12 26 -22 32 -22 6 0 8 -11 4 -30 -3 -20 -2 -29 4 -25 6 4 18 -1
27 -10 11 -11 27 -15 47 -12 17 2 41 1 53 -4 22 -8 53 14 39 28 -3 3 -6 0 -7
-8 0 -8 -5 -3 -10 11 -9 22 -21 119 -21 178 0 12 -4 22 -8 22 -11 0 -10 -12
-13 285 -2 163 1 253 8 258 6 4 5 10 -5 17 -8 5 -12 10 -9 10 4 0 3 19 -1 43
-5 23 -4 47 0 52 5 6 9 53 9 105 0 52 0 145 1 205 0 61 -1 130 -3 155 -2 24 3
57 11 72 11 22 11 32 2 43 -6 8 -9 18 -7 23 3 4 2 14 -2 21 -7 10 -12 10 -30
0 -11 -8 -21 -19 -21 -26 0 -16 -43 -45 -61 -41 -9 2 -13 -4 -11 -17 6 -52 4
-78 -8 -85 -7 -4 -9 -13 -6 -19 9 -14 -17 -41 -39 -41 -11 0 -15 -5 -11 -15 4
-11 -3 -17 -24 -22 -16 -3 -27 -9 -25 -14 3 -4 1 -11 -5 -14 -6 -4 -8 -15 -5
-26 4 -11 2 -19 -4 -19 -6 0 -11 16 -11 35 0 40 -24 49 -34 13 -13 -50 -7 -85
19 -102 23 -15 25 -15 35 3 5 11 10 31 10 46 0 16 4 24 10 20 6 -4 8 -15 5
-26 -4 -11 -2 -19 4 -19 6 0 11 11 11 25 0 18 5 25 20 25 11 0 20 7 20 15 0
21 13 19 41 -6 22 -19 29 -48 28 -116 0 -10 -1 -46 -1 -81 0 -35 -4 -60 -9
-56 -5 3 -7 10 -4 15 4 5 -3 9 -14 9 -16 0 -21 -6 -21 -25 0 -14 -5 -25 -12
-25 -6 0 -9 -2 -7 -5 3 -2 20 -1 37 4 37 11 53 -3 22 -19 -11 -6 -20 -17 -20
-25 0 -21 17 -19 24 3 3 9 3 0 0 -20 -2 -20 0 -39 6 -43 18 -11 11 -25 -14
-25 -14 0 -28 -5 -32 -12 -5 -8 0 -9 17 -5 22 5 22 5 6 -7 -10 -8 -31 -13 -48
-11 -34 2 -133 -40 -125 -54 3 -4 -5 -18 -18 -30 l-24 -22 -16 22 c-9 13 -16
33 -16 44 0 12 -6 27 -12 33 -10 10 -10 15 1 22 11 6 12 12 3 22 -6 8 -7 19
-2 28 5 8 6 18 4 22 -3 4 0 8 7 8 9 0 10 3 3 10 -5 5 -8 28 -6 50 3 33 8 40
26 41 l21 1 -21 6 c-14 5 -20 14 -18 27 2 11 -3 32 -11 48 -11 22 -11 27 0 27
7 0 18 6 25 14 6 8 19 12 28 10 13 -4 12 -2 -3 13 -25 22 -32 95 -9 86 8 -3
14 1 14 10 0 8 -13 17 -30 21 -18 3 -30 12 -30 21 0 9 4 14 9 10 5 -3 12 -1
16 5 3 5 -1 10 -9 10 -16 0 -18 20 -4 31 5 3 2 30 -6 59 -14 55 -13 75 5 65 5
-4 9 -1 9 4 0 6 -7 11 -17 11 -15 0 -15 1 0 18 10 10 17 31 17 45 0 20 5 27
20 27 13 0 20 7 20 20 0 15 7 20 26 20 20 0 25 4 20 16 -6 17 29 53 52 54 7 0
11 4 7 9 -7 12 22 41 41 41 7 0 16 11 20 25 3 14 12 25 18 25 12 0 56 52 56
66 0 12 82 84 96 84 7 0 14 4 16 9 2 6 23 11 48 12 25 1 53 6 62 11 10 5 19 4
24 -3 4 -6 20 -8 40 -4 19 3 40 2 47 -2 30 -20 90 0 93 31 0 6 2 16 2 23 1 7
8 10 16 7 16 -6 30 11 21 26 -4 7 -11 7 -18 2 -7 -5 -35 -6 -64 -3 -29 4 -57
3 -62 -2 -5 -5 -17 -4 -30 2 -12 7 -21 8 -21 3 0 -9 -127 -8 -137 2 -10 10
-52 7 -74 -5 -15 -7 -24 -7 -34 1 -8 7 -20 8 -26 4 -14 -8 -114 -8 -127 0 -5
3 -12 3 -15 0z m93 -744 c0 -5 -2 -10 -4 -10 -3 0 -8 5 -11 10 -3 6 -1 10 4
10 6 0 11 -4 11 -10z m17 -32 c-3 -8 -6 -5 -6 6 -1 11 2 17 5 13 3 -3 4 -12 1
-19z m23 -483 c0 -21 -19 -28 -35 -15 -18 15 -13 25 14 27 12 1 21 -4 21 -12z
m-63 -12 c4 -9 1 -19 -5 -21 -7 -2 -12 -8 -12 -13 0 -6 8 -5 20 1 15 8 24 6
39 -7 27 -22 9 -34 -33 -22 -17 5 -44 6 -61 3 -19 -3 -37 0 -50 11 l-20 16 20
-2 c27 -2 65 11 65 22 0 5 -4 9 -10 9 -5 0 -10 5 -10 10 0 17 50 11 57 -7z
m-108 -75 c20 -7 38 -16 41 -19 5 -7 36 -12 54 -10 5 0 3 8 -4 16 -18 21 13
21 34 -1 11 -11 16 -12 16 -3 0 10 3 10 11 2 6 -6 12 -42 14 -81 1 -38 5 -74
9 -81 4 -6 2 -11 -3 -11 -6 0 -12 -12 -12 -27 -2 -24 -2 -24 -6 -6 -3 16 -14
24 -38 29 -28 5 -33 10 -32 30 1 14 9 29 17 34 11 7 11 10 2 10 -8 0 -12 10
-10 28 3 22 -1 27 -18 25 -14 -2 -24 4 -27 17 -3 11 -18 22 -33 26 -16 4 -33
12 -37 18 -5 6 -6 -1 -3 -16 6 -25 4 -28 -21 -27 -16 0 -22 3 -15 6 6 2 12 16
12 29 0 28 2 28 49 12z"/>
<path d="M700 3720 c0 -5 5 -10 11 -10 5 0 7 5 4 10 -3 6 -8 10 -11 10 -2 0
-4 -4 -4 -10z"/>
<path d="M730 3630 c0 -5 5 -10 11 -10 5 0 7 5 4 10 -3 6 -8 10 -11 10 -2 0
-4 -4 -4 -10z"/>
<path d="M1562 5153 c-13 -3 -26 -11 -29 -19 -12 -31 -128 -154 -145 -154 -4
0 -8 -7 -8 -15 0 -16 -34 -55 -48 -55 -5 0 -14 -11 -22 -24 -7 -13 -21 -27
-31 -29 -13 -3 -17 -11 -13 -21 4 -11 0 -16 -14 -16 -11 0 -29 -14 -42 -33
-13 -18 -35 -39 -50 -46 -16 -6 -27 -19 -26 -29 0 -11 -7 -18 -21 -20 -13 -2
-23 -10 -23 -18 0 -8 -6 -17 -13 -20 -8 -3 -12 -21 -10 -52 1 -26 3 -47 4 -47
1 0 3 -29 4 -65 2 -36 4 -72 6 -80 3 -11 -3 -14 -24 -12 -18 2 -26 -1 -22 -7
3 -6 -1 -11 -9 -11 -8 0 -20 -9 -26 -19 -11 -22 -14 -42 -2 -24 10 16 54 25
72 14 22 -15 5 -24 -21 -11 -19 11 -21 10 -16 -3 3 -9 1 -17 -5 -19 -8 -3 -5
-15 7 -35 11 -18 24 -29 32 -26 7 3 13 0 13 -6 0 -6 -9 -11 -20 -11 -11 0 -20
-4 -20 -10 0 -5 6 -9 12 -7 21 4 21 -41 0 -63 -18 -20 -20 -66 -2 -55 4 3 13
-2 20 -10 9 -11 10 -15 1 -15 -7 0 -20 -7 -28 -16 -12 -11 -28 -14 -60 -10
-42 5 -43 4 -43 -24 0 -19 -5 -28 -12 -26 -7 1 -10 1 -5 -1 14 -9 7 -22 -15
-26 -17 -3 -14 -5 10 -6 22 -1 32 3 32 14 0 8 6 15 14 15 8 0 22 3 32 7 12 4
15 3 10 -5 -7 -12 36 -28 52 -18 5 3 8 -14 6 -40 -3 -25 1 -54 7 -65 8 -17 7
-23 -8 -35 -12 -9 -14 -16 -7 -21 5 -5 10 -28 10 -51 -1 -24 3 -46 7 -49 5 -3
0 -11 -10 -18 -14 -11 -16 -16 -5 -26 14 -15 16 -79 2 -79 -14 0 -12 -26 3
-38 9 -8 14 -44 16 -114 1 -57 6 -107 11 -112 4 -4 3 -22 -3 -39 -8 -23 -7
-32 1 -35 14 -4 16 -32 2 -32 -17 0 -6 -55 14 -69 21 -15 140 -20 189 -7 14 3
28 2 32 -4 4 -6 15 -6 32 1 17 6 30 6 38 -1 8 -6 29 -7 58 -1 31 5 49 5 57 -3
7 -7 16 -7 30 2 24 15 76 16 85 2 14 -22 20 1 19 72 -1 40 -5 92 -9 116 -4 28
-3 42 4 42 7 0 9 13 5 38 -4 20 -6 94 -6 164 0 70 -4 130 -9 134 -5 3 -6 10
-3 16 3 5 5 65 4 131 -1 67 -2 143 -2 170 0 26 -4 47 -9 47 -6 0 -5 8 1 20 6
12 8 35 5 53 -10 52 -11 147 -1 147 7 0 6 18 -11 101 -4 21 3 36 32 68 21 22
43 41 49 41 7 0 19 12 27 28 17 33 64 82 78 82 6 0 11 5 11 11 0 12 60 69 73
69 4 0 7 5 7 11 0 6 23 33 50 60 28 27 49 49 46 49 -2 0 8 13 24 29 20 19 44
31 75 35 36 6 45 11 45 27 0 10 7 19 15 19 8 0 15 5 15 10 0 14 72 85 95 93 9
4 13 11 10 17 -3 5 5 21 19 35 15 14 26 30 26 35 0 4 9 6 20 3 14 -4 20 0 20
10 0 19 -16 31 -25 18 -5 -9 -90 -6 -140 4 -11 2 -27 0 -35 -5 -8 -5 -18 -6
-23 -3 -15 9 -128 9 -134 0 -3 -5 -12 -5 -22 -2 -18 8 -198 8 -211 0 -5 -3
-11 -2 -13 3 -3 4 -23 6 -44 4 -58 -5 -87 -5 -103 0 -8 3 -25 3 -38 1z m195
-245 c17 -2 35 -7 39 -11 4 -4 24 -7 44 -7 22 0 43 -7 50 -15 11 -13 7 -21
-24 -48 -20 -18 -36 -37 -36 -42 0 -6 -14 -19 -30 -30 -16 -11 -30 -27 -30
-36 0 -9 -9 -19 -20 -22 -11 -3 -20 -12 -20 -21 0 -9 -16 -33 -35 -53 -80 -87
-105 -119 -105 -131 0 -7 -4 -11 -9 -7 -5 3 -16 -4 -25 -16 -8 -12 -18 -19
-23 -16 -18 11 -116 16 -139 7 -14 -6 -26 -6 -29 0 -4 6 -23 7 -44 4 -22 -4
-41 -2 -45 4 -4 7 -17 7 -40 0 -36 -11 -66 -6 -66 12 0 5 7 10 15 10 8 0 15 9
15 19 0 11 9 22 19 26 11 3 23 15 26 26 4 10 15 19 26 19 10 0 18 3 17 8 -5
20 16 52 46 66 18 9 46 33 62 53 15 21 32 40 36 41 4 2 8 10 8 18 0 9 5 12 10
9 6 -3 13 2 17 12 15 38 72 93 96 93 11 0 21 8 23 18 4 14 15 17 72 15 37 -2
81 -4 99 -5z m-692 -767 c3 -5 1 -12 -5 -16 -5 -3 -10 1 -10 9 0 18 6 21 15 7z
m5 -111 c0 -5 -4 -10 -10 -10 -5 0 -10 5 -10 10 0 6 5 10 10 10 6 0 10 -4 10
-10z m363 -194 c8 3 18 1 21 -5 4 -6 19 -8 34 -5 41 7 54 -8 56 -64 1 -28 5
-54 9 -58 17 -17 4 -26 -33 -21 -22 2 -40 0 -40 -5 0 -5 -3 -7 -8 -4 -4 2 -26
1 -50 -4 -24 -4 -45 -3 -48 2 -3 5 -15 6 -27 2 -35 -11 -121 -12 -134 -1 -9 6
-13 6 -13 -2 0 -7 -5 -9 -12 -4 -7 4 -17 8 -23 8 -13 1 -7 58 8 67 8 5 6 9 -5
13 -9 4 -14 14 -12 23 14 76 11 72 62 72 26 0 61 -4 79 -9 17 -5 35 -5 39 -1
16 15 59 16 70 3 6 -7 18 -11 27 -7z"/>
<path d="M3264 5146 c-10 -6 -37 -15 -59 -21 -53 -13 -64 -47 -59 -182 2 -61
0 -105 -6 -108 -6 -4 -7 -12 -3 -18 11 -19 13 -60 2 -73 -5 -7 -6 -15 -1 -18
5 -3 8 -77 7 -165 0 -90 3 -161 8 -161 5 0 5 -6 0 -12 -9 -11 -8 -67 2 -76 2
-2 -1 -17 -6 -34 -5 -18 -5 -38 1 -48 6 -11 4 -26 -5 -43 -7 -14 -11 -28 -8
-30 2 -3 6 -32 7 -65 2 -33 7 -65 10 -71 4 -6 4 -11 -1 -11 -12 0 -11 -324 2
-332 6 -5 6 -8 -2 -8 -10 0 -12 -22 -9 -85 3 -60 1 -85 -7 -85 -8 0 -8 -3 1
-8 9 -6 10 -16 3 -34 -8 -21 -7 -28 5 -32 11 -4 13 -13 8 -28 -10 -34 -12
-120 -2 -140 4 -9 4 -19 -1 -22 -13 -8 -7 -89 7 -94 7 -2 12 1 12 6 0 10 246
8 272 -2 9 -4 25 -3 34 2 12 7 26 6 41 -1 17 -7 27 -7 35 1 7 7 17 8 29 2 21
-12 61 -9 72 5 6 6 10 6 14 -2 6 -17 125 -17 141 -1 10 10 17 10 32 0 16 -10
24 -10 40 0 15 10 24 10 38 1 12 -7 62 -9 153 -6 117 4 314 6 374 4 11 0 47 0
80 2 33 1 73 -1 89 -5 20 -5 32 -4 38 5 6 9 10 9 20 -1 6 -6 24 -12 39 -12 26
0 26 1 25 68 -1 37 -6 73 -11 81 -4 8 -9 46 -10 85 -1 39 -6 79 -10 89 -4 9
-3 23 3 30 7 9 9 62 2 62 -2 0 -11 111 -11 140 -1 11 4 39 9 62 7 32 6 45 -4
54 -10 8 -10 16 -2 34 7 15 7 37 0 70 -8 36 -7 53 4 73 9 19 10 28 2 33 -8 5
-8 18 -1 48 9 32 8 43 -3 52 -8 7 -11 16 -6 23 5 6 8 18 7 26 -1 8 2 23 7 32
5 11 3 22 -7 32 -10 9 -11 17 -5 21 6 4 8 11 5 16 -4 5 -2 9 4 9 6 0 7 11 2
28 -5 15 -4 38 1 51 5 15 4 28 -2 36 -7 8 -7 15 -1 19 10 6 8 77 -3 94 -3 6
-2 22 4 36 5 15 7 46 4 70 -4 27 -2 46 5 50 18 11 13 26 -9 26 -13 0 -24 -10
-30 -26 -6 -14 -15 -22 -21 -19 -6 4 -19 -2 -30 -14 -22 -24 -42 -27 -57 -8
-11 13 -166 15 -214 3 -28 -8 -43 -43 -33 -75 3 -10 -3 -25 -14 -35 -18 -17
-22 -17 -51 -3 -18 9 -39 13 -50 9 -29 -11 -183 1 -187 15 -5 15 52 73 72 73
9 0 14 4 11 8 -3 5 4 18 14 30 11 12 20 24 20 26 0 8 104 106 113 106 4 0 7 7
7 15 0 8 7 15 15 15 8 0 15 6 15 14 0 8 7 16 15 20 8 3 15 10 15 16 0 16 85
94 128 117 18 10 28 10 44 0 13 -8 22 -8 24 -2 3 6 33 10 74 9 66 -2 72 -1
104 29 55 52 66 59 95 62 15 1 33 5 39 9 6 4 20 2 31 -3 10 -6 39 -9 62 -7 24
2 47 -1 50 -7 4 -6 15 -7 25 -2 24 10 30 12 50 14 10 1 14 7 10 16 -3 9 4 21
19 31 32 21 32 29 0 29 -14 0 -25 -2 -25 -5 0 -8 -174 -5 -187 3 -6 4 -14 3
-18 -2 -3 -6 -15 -7 -29 -1 -15 5 -27 5 -35 -3 -8 -8 -11 -8 -11 0 0 7 -11 8
-34 3 -19 -4 -37 -6 -40 -3 -3 4 -304 6 -410 2 -21 0 -37 -14 -55 -47 -6 -12
-18 -22 -26 -22 -8 0 -15 -6 -15 -13 0 -7 -9 -18 -20 -25 -11 -7 -20 -17 -20
-22 0 -5 -14 -23 -32 -40 -17 -17 -36 -39 -42 -49 -24 -40 -100 -127 -122
-139 -14 -7 -24 -22 -24 -33 0 -16 -4 -19 -17 -14 -10 3 -36 9 -57 11 -22 3
-43 7 -47 10 -4 2 -10 0 -13 -4 -3 -5 -48 -8 -100 -6 -76 2 -99 0 -111 -13
-12 -12 -13 -18 -4 -29 9 -11 8 -18 -1 -29 -7 -9 -9 -22 -5 -32 5 -10 7 -24 6
-31 -3 -21 18 -40 38 -35 10 3 22 -1 26 -8 6 -9 2 -11 -13 -7 -46 13 -52 -47
-8 -85 20 -18 21 -18 27 5 4 16 0 28 -14 39 -19 16 -19 16 12 27 18 6 30 16
27 21 -8 13 53 22 74 11 9 -5 20 -6 24 -3 11 11 36 12 36 1 0 -5 9 -6 20 -3
13 4 20 2 20 -6 0 -7 3 -10 6 -6 10 9 66 -22 59 -33 -3 -5 -1 -26 4 -47 8 -28
7 -39 -2 -45 -6 -4 -12 -13 -12 -20 0 -9 -19 -13 -68 -13 -37 -1 -67 2 -67 6
0 11 -99 0 -155 -16 -16 -5 -23 1 -32 24 -8 24 -8 31 0 31 7 0 3 7 -7 15 -18
14 -19 15 -2 15 14 0 17 5 12 23 -3 12 -6 25 -6 30 0 16 -32 6 -37 -13 -3 -11
-12 -20 -19 -20 -8 0 -14 -6 -14 -13 0 -19 -77 -60 -101 -54 -10 3 -19 2 -19
-3 0 -11 -60 -18 -66 -8 -4 5 -22 8 -42 6 -27 -2 -36 1 -38 15 -1 9 4 17 12
17 8 0 14 6 14 13 0 7 10 23 23 34 31 29 63 69 70 87 4 9 13 12 28 9 16 -4 20
-2 17 8 -3 8 10 25 27 39 17 14 30 31 27 38 -2 6 7 16 20 21 12 6 20 10 17 10
-4 1 20 29 52 62 32 34 59 65 59 70 0 5 9 9 19 9 11 0 22 4 25 9 3 5 22 12 41
15 22 4 35 13 35 22 0 8 4 13 9 10 5 -4 11 -2 13 3 4 12 72 92 123 146 68 71
61 78 -88 78 -70 0 -130 -2 -132 -5 -2 -2 -28 -1 -57 2 -67 7 -208 4 -230 -5
-9 -3 -32 -2 -51 3 -23 7 -40 6 -53 -2z m642 -573 c-6 -6 -36 9 -36 18 0 5 9
4 20 -3 10 -7 18 -14 16 -15z m640 -1013 c8 0 12 -4 9 -10 -3 -5 -2 -10 3 -10
5 0 9 -45 9 -100 1 -54 4 -104 8 -110 12 -19 -6 -30 -43 -25 -21 3 -39 0 -43
-7 -5 -8 -15 -8 -38 2 -31 13 -40 33 -20 46 7 4 8 9 1 13 -14 9 -25 88 -13 95
6 4 8 12 6 19 -14 46 -14 77 0 77 8 0 15 7 15 16 0 12 6 15 23 11 12 -3 31 -2
42 3 14 5 21 3 23 -6 2 -8 10 -14 18 -14z"/>
<path d="M2669 5130 c-13 -10 -21 -19 -16 -20 4 0 -10 -18 -30 -39 -40 -40
-43 -44 -98 -100 -19 -19 -32 -39 -29 -43 3 -4 -4 -8 -14 -8 -13 0 -27 -14
-40 -40 -10 -22 -22 -37 -26 -33 -8 8 -30 -20 -53 -65 -20 -42 -36 -48 -79
-33 -23 8 -39 9 -52 2 -13 -7 -22 -7 -30 1 -9 9 -15 9 -24 0 -7 -7 -17 -8 -28
-2 -20 11 -58 8 -84 -7 -13 -7 -28 -8 -48 -1 -34 12 -46 4 -32 -20 6 -9 7 -28
3 -42 -4 -14 -7 -38 -8 -53 -1 -26 1 -28 28 -22 17 3 32 2 36 -5 4 -6 28 -8
63 -5 42 4 53 2 45 -6 -9 -9 -9 -16 0 -30 9 -14 9 -21 -1 -31 -9 -9 -14 -5
-23 20 -12 35 -29 43 -29 13 0 -10 7 -21 15 -25 8 -3 15 -15 15 -26 0 -23 3
-24 47 -8 23 8 35 20 39 38 11 49 12 51 41 43 16 -4 35 -7 43 -7 11 0 14 -10
11 -39 -2 -21 1 -43 7 -49 20 -20 -21 -96 -42 -79 -19 15 -52 17 -69 3 -11 -9
-22 -10 -34 -4 -10 5 -57 8 -105 6 -77 -2 -88 0 -88 14 0 21 14 44 26 42 5 -1
10 4 13 11 2 8 -2 10 -15 5 -10 -4 -15 -4 -12 0 4 4 3 15 -3 25 -11 22 -49 26
-49 5 0 -8 -9 -17 -19 -21 -11 -3 -23 -15 -26 -26 -4 -10 -13 -19 -22 -19 -14
0 -14 -2 0 -18 10 -10 14 -21 11 -25 -11 -10 -13 -71 -3 -89 6 -11 5 -19 -2
-23 -6 -4 -7 -14 -4 -24 4 -9 8 -54 10 -101 1 -47 4 -89 5 -95 2 -5 0 -22 -4
-37 -4 -15 -5 -32 0 -39 10 -17 11 -80 2 -108 -6 -15 -4 -29 4 -38 10 -12 9
-17 -5 -24 -18 -10 -24 -39 -8 -39 5 0 7 -29 6 -65 -2 -41 0 -65 7 -65 7 0 7
-4 1 -12 -6 -8 -9 -75 -7 -168 2 -85 3 -173 2 -195 -1 -64 4 -115 16 -133 7
-11 55 -10 74 2 7 4 18 3 25 -2 15 -13 110 -4 119 11 5 8 10 8 20 0 7 -6 45
-11 83 -11 39 1 75 0 80 -2 6 -1 27 -2 48 -1 32 1 37 4 37 25 0 14 -5 37 -10
51 -7 18 -7 39 -1 61 5 19 6 34 1 34 -5 0 -4 14 1 32 5 18 5 36 1 40 -5 5 -6
25 -3 44 6 34 8 36 49 38 23 1 42 -2 42 -7 0 -5 11 -6 25 -3 14 4 25 2 25 -3
0 -5 9 -7 20 -4 11 3 26 1 33 -5 6 -6 29 -10 50 -10 47 0 63 -12 49 -39 -7
-13 -6 -25 3 -42 8 -16 10 -34 4 -53 -4 -15 -6 -28 -3 -28 3 0 0 -9 -6 -19 -7
-14 -7 -22 0 -26 6 -4 7 -12 3 -18 -4 -7 -8 -22 -8 -34 -1 -17 7 -22 35 -27
19 -3 48 -6 64 -6 25 0 28 3 23 26 -2 15 0 42 5 61 6 24 6 39 -2 48 -8 10 -8
15 0 20 8 5 9 24 4 59 -9 63 -9 200 0 214 3 6 2 13 -3 17 -6 3 -7 16 -3 28 8
25 8 144 0 152 -3 3 -2 25 3 49 4 24 6 67 3 97 -5 45 -5 128 -2 254 0 11 -3
37 -6 58 -4 23 -2 37 4 37 7 0 9 15 4 43 -3 23 -6 47 -6 52 2 14 4 155 3 188
-1 15 -6 27 -12 27 -14 0 -39 -25 -39 -40 0 -6 -11 -15 -24 -20 -18 -6 -26
-20 -32 -52 -5 -24 -7 -55 -6 -70 2 -15 -2 -36 -7 -47 -8 -14 -8 -23 2 -33 11
-11 15 -60 6 -78 -1 -3 -3 -12 -3 -20 -1 -15 -19 -17 -68 -6 -18 4 -28 2 -28
-5 0 -8 -5 -8 -15 1 -9 7 -18 10 -22 7 -3 -4 -12 -2 -19 4 -8 7 -14 7 -19 -1
-3 -5 -27 -10 -52 -10 -45 0 -45 0 -41 31 3 17 2 49 -2 70 -4 22 -4 39 -1 39
4 0 7 38 6 84 -1 82 0 85 35 127 19 24 77 86 127 138 51 53 93 102 93 109 0 6
9 12 20 12 11 0 20 6 20 13 1 14 39 58 65 73 20 11 27 58 13 87 -6 12 -5 24 4
34 9 12 10 17 2 20 -7 2 -10 12 -7 21 5 21 -52 82 -77 82 -10 0 -28 -9 -41
-20z"/>
<path d="M5420 5139 c0 -5 -8 -9 -17 -7 -11 2 -19 -5 -21 -16 -5 -23 -49 -69
-74 -79 -10 -3 -18 -13 -18 -22 0 -8 -4 -15 -10 -15 -5 0 -10 -7 -10 -15 0 -8
-6 -15 -14 -15 -7 0 -19 -14 -26 -31 -8 -17 -18 -28 -26 -25 -7 3 -20 -7 -30
-22 -9 -15 -32 -41 -51 -59 -18 -17 -33 -36 -33 -42 0 -6 -9 -11 -21 -11 -11
0 -17 -5 -14 -10 3 -6 -7 -18 -24 -28 -22 -12 -29 -22 -25 -35 4 -13 0 -20
-15 -24 -42 -11 -70 -82 -47 -118 10 -14 12 -34 7 -61 -6 -38 -6 -50 3 -124 2
-19 0 -41 -6 -48 -8 -9 -8 -16 -1 -23 7 -7 8 -22 3 -39 -5 -18 -4 -32 3 -39 7
-7 7 -11 1 -11 -7 0 -10 -20 -9 -47 1 -27 -3 -56 -9 -65 -8 -13 -7 -24 2 -38
7 -12 9 -26 5 -33 -9 -14 -12 -117 -3 -117 3 0 5 -11 5 -25 0 -14 -3 -25 -7
-25 -12 0 -10 -38 2 -45 10 -6 8 -55 -5 -112 -5 -20 -3 -38 4 -46 6 -8 7 -17
3 -21 -15 -15 -9 -101 7 -113 12 -9 13 -15 4 -23 -7 -8 -8 -22 -3 -40 4 -15 8
-72 8 -126 2 -161 3 -172 17 -184 8 -7 20 -8 27 -4 20 13 72 11 83 -3 7 -9 19
-11 40 -5 31 9 175 9 191 0 14 -8 147 -3 162 5 6 5 12 4 12 -2 0 -16 26 -13
45 5 10 10 13 24 9 38 -4 11 -7 41 -6 66 0 25 -5 51 -10 58 -8 9 -8 19 0 35
17 36 20 63 12 105 -4 23 -3 48 3 58 7 11 6 23 -1 34 -7 11 -7 21 -1 27 6 6 6
20 -1 39 -8 20 -8 30 -1 32 15 5 14 49 -1 55 -10 3 -10 7 0 20 8 9 10 22 6 28
-12 20 -12 73 -1 81 7 4 7 11 -2 21 -6 9 -8 18 -3 21 10 6 9 36 -1 53 -4 6 -4
14 1 17 4 3 5 31 1 63 -3 32 -3 63 1 68 9 11 5 78 -5 94 -3 6 -1 20 5 32 8 14
9 24 2 31 -7 7 -7 19 -2 34 5 13 6 25 1 28 -4 3 -6 38 -3 79 2 49 0 77 -8 82
-8 5 -7 12 4 24 20 22 11 95 -11 87 -8 -4 -19 -6 -24 -6 -5 0 -9 -6 -9 -13 0
-7 -15 -24 -32 -37 -18 -13 -37 -29 -41 -36 -6 -10 -24 -12 -70 -8 -69 7 -66
7 -122 0 -22 -2 -44 -2 -49 2 -16 9 -59 9 -89 -1 -41 -14 -61 8 -29 31 12 10
26 31 30 47 6 20 16 31 30 33 12 2 22 8 22 13 0 10 70 79 81 79 4 0 14 16 24
36 9 20 19 33 22 30 9 -9 43 14 43 29 0 8 9 20 20 27 11 7 20 21 20 30 0 10
10 20 25 24 14 3 25 12 25 18 0 7 11 22 25 34 22 19 34 22 75 17 l50 -6 -5 78
c-2 43 -5 80 -6 83 -1 3 -1 8 -1 11 1 4 -11 19 -27 34 -27 28 -91 45 -91 24z
m-292 -1303 c26 -14 157 -14 170 -1 3 3 11 0 19 -7 10 -8 20 -8 39 3 23 12 27
11 40 -6 21 -28 15 -95 -8 -95 -27 0 -22 -17 8 -24 23 -6 30 -31 8 -31 -5 0
-15 -4 -22 -9 -8 -5 -18 -4 -25 3 -14 14 -67 14 -67 0 0 -11 -85 -8 -96 4 -4
4 -15 2 -25 -4 -11 -5 -19 -6 -19 -2 0 9 -53 7 -88 -3 -13 -4 -22 -3 -21 2 2
5 -3 21 -11 36 -10 21 -10 31 -1 42 8 10 9 16 1 21 -5 3 -10 23 -10 43 0 28 3
33 10 22 6 -9 10 -10 10 -3 0 10 11 14 53 22 4 0 20 -5 35 -13z"/>
<path d="M875 4686 c-15 -48 -15 -46 5 -33 22 13 26 32 10 42 -6 3 -12 -1 -15
-9z"/>
<path d="M923 4684 c4 -4 2 -13 -4 -21 -9 -10 -8 -13 1 -13 10 0 10 -3 0 -15
-16 -19 4 -21 24 -3 16 15 9 45 -12 53 -9 3 -13 3 -9 -1z"/>
<path d="M1045 4670 c3 -5 8 -10 11 -10 2 0 4 5 4 10 0 6 -5 10 -11 10 -5 0
-7 -4 -4 -10z"/>
<path d="M647 4603 c-4 -3 -7 -11 -7 -17 0 -6 5 -5 12 2 6 6 9 14 7 17 -3 3
-9 2 -12 -2z"/>
<path d="M880 4599 c0 -5 5 -7 10 -4 6 3 10 8 10 11 0 2 -4 4 -10 4 -5 0 -10
-5 -10 -11z"/>
<path d="M685 4590 c3 -5 8 -10 11 -10 2 0 4 5 4 10 0 6 -5 10 -11 10 -5 0 -7
-4 -4 -10z"/>
<path d="M560 4556 c0 -9 5 -16 10 -16 6 0 10 4 10 9 0 6 -4 13 -10 16 -5 3
-10 -1 -10 -9z"/>
<path d="M498 4553 c6 -2 12 -12 12 -21 0 -14 2 -15 9 -2 12 18 5 30 -17 29
-11 0 -12 -3 -4 -6z"/>
<path d="M600 4510 c0 -5 5 -10 10 -10 6 0 10 5 10 10 0 6 -4 10 -10 10 -5 0
-10 -4 -10 -10z"/>
<path d="M2196 4475 c-18 -18 -21 -35 -6 -35 6 0 10 6 10 14 0 8 6 16 13 19 6
2 9 7 6 11 -4 4 -14 0 -23 -9z"/>
<path d="M3680 4470 c0 -5 5 -10 11 -10 5 0 7 5 4 10 -3 6 -8 10 -11 10 -2 0
-4 -4 -4 -10z"/>
<path d="M3846 4472 c-9 -15 22 -42 40 -35 18 7 12 29 -6 25 -7 -2 -16 2 -20
9 -5 7 -10 8 -14 1z"/>
<path d="M520 4430 c0 -5 5 -10 10 -10 6 0 10 5 10 10 0 6 -4 10 -10 10 -5 0
-10 -4 -10 -10z"/>
<path d="M897 4329 c7 -7 15 -10 18 -7 3 3 -2 9 -12 12 -14 6 -15 5 -6 -5z"/>
<path d="M610 4265 c0 -8 5 -15 10 -15 6 0 10 7 10 15 0 8 -4 15 -10 15 -5 0
-10 -7 -10 -15z"/>
<path d="M1730 4249 c0 -10 -5 -21 -10 -24 -6 -4 -9 -22 -7 -41 3 -19 0 -37
-5 -40 -4 -3 -7 -18 -5 -32 3 -15 0 -36 -5 -46 -8 -15 -6 -21 8 -29 16 -9 16
-10 -1 -23 -10 -8 -13 -14 -7 -14 7 0 12 -7 12 -16 0 -8 4 -12 10 -9 6 3 7 -1
4 -9 -3 -9 -10 -16 -14 -16 -5 0 -6 -18 -3 -41 4 -28 2 -44 -7 -49 -11 -7 -11
-12 -2 -23 8 -9 9 -24 2 -45 -5 -21 -5 -32 1 -32 6 0 8 -15 5 -35 -3 -19 -2
-35 3 -35 5 0 8 -8 7 -17 -2 -10 2 -22 8 -26 7 -5 3 -7 -9 -5 -16 2 -20 -3
-20 -32 -1 -19 2 -39 6 -45 4 -5 6 -63 5 -127 -1 -65 0 -122 3 -126 5 -8 40
-20 79 -28 14 -3 39 53 33 71 -2 6 -6 46 -7 90 -4 101 -10 160 -17 171 -2 5
-4 32 -3 59 2 28 -1 60 -5 72 -5 12 -4 25 0 28 5 3 7 17 5 33 -6 35 -5 81 2
112 3 14 6 30 6 35 0 20 -12 87 -17 95 -3 5 -2 11 3 14 9 6 16 159 7 185 -8
27 -65 26 -65 0z"/>
<path d="M698 4243 c7 -3 16 -2 19 1 4 3 -2 6 -13 5 -11 0 -14 -3 -6 -6z"/>
<path d="M615 4210 c-9 -14 41 -23 62 -11 16 10 15 11 -7 9 -14 -1 -30 1 -37
5 -6 4 -14 3 -18 -3z"/>
<path d="M556 4181 c-4 -7 -5 -15 -2 -18 9 -9 19 4 14 18 -4 11 -6 11 -12 0z"/>
<path d="M571 4156 c-8 -9 -8 -16 -2 -20 6 -4 15 3 21 14 12 23 -2 27 -19 6z"/>
<path d="M615 4080 c-3 -5 -1 -10 4 -10 6 0 11 5 11 10 0 6 -2 10 -4 10 -3 0
-8 -4 -11 -10z"/>
<path d="M640 4060 c0 -12 7 -20 18 -20 14 0 15 2 2 10 -13 9 -13 11 0 20 13
8 12 10 -2 10 -11 0 -18 -8 -18 -20z"/>
<path d="M560 4027 c0 -7 5 -18 12 -25 9 -9 8 -12 -6 -12 -9 0 -14 5 -11 10 3
6 4 10 1 10 -2 0 -12 3 -20 6 -12 5 -15 2 -10 -10 5 -12 0 -16 -17 -16 -12 0
-19 -3 -16 -6 4 -4 31 -7 62 -7 39 0 55 -4 55 -14 0 -15 28 -17 50 -3 13 9 13
11 0 20 -8 5 -26 10 -39 10 -16 0 -21 4 -18 14 4 10 1 13 -9 9 -8 -3 -14 1
-14 11 0 9 -4 16 -10 16 -5 0 -10 -6 -10 -13z"/>
<path d="M688 4013 c7 -3 16 -2 19 1 4 3 -2 6 -13 5 -11 0 -14 -3 -6 -6z"/>
<path d="M708 3983 c7 -3 16 -2 19 1 4 3 -2 6 -13 5 -11 0 -14 -3 -6 -6z"/>
<path d="M535 3960 c-30 -8 -30 -8 8 -9 23 -1 36 3 32 9 -3 6 -7 9 -8 9 -1 -1
-15 -5 -32 -9z"/>
<path d="M990 3955 c7 -8 20 -15 29 -15 13 1 13 3 -3 15 -26 19 -42 19 -26 0z"/>
<path d="M865 3899 c-19 -7 -19 -8 3 -8 12 -1 22 -6 22 -13 0 -6 3 -9 6 -5 13
13 -11 34 -31 26z"/>
<path d="M498 3863 c7 -3 16 -2 19 1 4 3 -2 6 -13 5 -11 0 -14 -3 -6 -6z"/>
<path d="M854 3814 c3 -9 6 -20 6 -25 0 -5 7 -9 15 -9 18 0 18 5 5 31 -13 23
-35 26 -26 3z"/>
<path d="M900 3791 c0 -13 29 -35 37 -28 7 8 -15 37 -28 37 -5 0 -9 -4 -9 -9z"/>
<path d="M960 3730 c-8 -5 -11 -13 -6 -17 5 -4 11 -2 13 5 3 6 9 10 14 6 5 -3
9 0 9 5 0 13 -10 14 -30 1z"/>
<path d="M548 3693 c-22 -6 -23 -19 -2 -27 13 -5 14 -9 4 -21 -10 -12 -9 -15
9 -15 16 0 21 6 21 25 0 14 -5 25 -11 25 -5 0 -7 5 -4 10 3 6 5 9 3 9 -2 -1
-11 -3 -20 -6z"/>
<path d="M525 3440 c3 -5 8 -10 11 -10 2 0 4 5 4 10 0 6 -5 10 -11 10 -5 0 -7
-4 -4 -10z"/>
<path d="M515 3380 c3 -5 11 -10 16 -10 6 0 7 5 4 10 -3 6 -11 10 -16 10 -6 0
-7 -4 -4 -10z"/>
<path d="M1040 3230 c0 -6 7 -10 15 -10 8 0 15 2 15 4 0 2 -7 6 -15 10 -8 3
-15 1 -15 -4z"/>
<path d="M590 3223 c0 -14 19 -38 25 -32 8 8 -5 39 -16 39 -5 0 -9 -3 -9 -7z"/>
<path d="M963 3223 c-21 -8 -15 -19 13 -21 22 -2 25 0 14 13 -7 8 -13 15 -14
14 0 0 -7 -3 -13 -6z"/>
<path d="M520 3210 c0 -13 18 -22 24 -11 3 5 -1 11 -9 15 -8 3 -15 1 -15 -4z"/>
<path d="M640 3202 c0 -14 2 -15 10 -2 8 12 10 11 10 -7 0 -30 16 -30 22 0 4
18 0 23 -19 25 -16 1 -23 -3 -23 -16z"/>
<path d="M540 3155 c14 -7 27 -11 30 -9 6 7 -22 24 -40 23 -9 0 -5 -6 10 -14z"/>
<path d="M455 2932 c-51 -3 -69 -16 -60 -41 3 -8 0 -18 -7 -23 -7 -4 -8 -8 -3
-8 6 0 9 -33 7 -87 -2 -58 1 -89 9 -94 7 -4 8 -12 3 -20 -12 -18 -13 -198 -2
-205 4 -3 1 -12 -7 -20 -11 -12 -12 -20 -4 -35 6 -11 7 -34 4 -50 -4 -17 -2
-36 4 -43 9 -10 8 -15 -5 -20 -11 -4 -13 -10 -7 -19 10 -13 11 -192 1 -203 -5
-5 8 -56 15 -60 1 0 -4 -8 -11 -17 -9 -11 -10 -22 -4 -34 5 -10 8 -97 7 -193
0 -96 3 -181 8 -187 6 -9 5 -13 -2 -13 -12 0 -15 -42 -4 -53 9 -10 10 -57 1
-57 -12 0 -9 -35 4 -48 7 -7 8 -12 2 -12 -8 0 -12 -260 -4 -285 2 -5 0 -25 -4
-43 -5 -21 -4 -38 3 -46 9 -10 8 -15 -4 -20 -21 -8 -19 -23 5 -43 11 -10 20
-22 20 -29 0 -30 36 -43 110 -42 41 1 81 6 88 11 8 6 12 6 12 -1 0 -6 6 -9 13
-6 8 3 33 0 57 -5 28 -6 49 -6 56 0 7 6 16 4 24 -6 10 -13 16 -13 40 0 20 10
30 11 38 3 8 -8 15 -8 25 0 8 7 16 9 19 6 11 -10 113 -10 126 0 9 7 16 5 23
-5 8 -12 10 -12 18 0 8 12 12 12 24 2 9 -6 17 -8 20 -4 6 9 287 8 326 -1 13
-3 32 -1 42 5 11 5 19 6 19 2 0 -4 55 -8 122 -9 91 -1 126 3 136 13 8 7 18 10
23 7 10 -6 55 -15 94 -18 11 -1 26 2 33 7 6 5 25 7 40 4 15 -3 34 -2 42 4 9 5
10 9 3 9 -8 0 -11 30 -11 96 0 53 -4 99 -8 103 -14 10 -18 95 -18 381 -1 152
-5 268 -10 272 -6 4 -4 13 3 22 7 9 11 27 9 41 -3 14 -1 25 6 25 7 0 8 3 1 8
-12 8 -14 111 -2 129 4 6 3 23 -3 37 -5 14 -6 28 -1 30 9 6 12 95 4 109 -9 15
-10 117 -1 117 5 0 4 9 -2 19 -13 26 -13 31 5 31 8 0 15 5 15 11 0 6 -7 9 -15
6 -12 -5 -12 -1 2 28 9 19 13 41 9 52 -7 17 -8 17 -22 -1 -8 -11 -14 -16 -14
-10 0 5 -6 2 -13 -7 -7 -8 -20 -18 -29 -22 -10 -3 -18 -16 -18 -27 0 -11 -7
-20 -15 -20 -8 0 -15 5 -15 10 0 6 -11 10 -25 10 -14 0 -25 6 -25 13 0 9 -2 9
-8 -1 -7 -9 -16 -10 -41 -1 -22 8 -44 8 -71 1 -21 -5 -42 -6 -47 -1 -5 5 -21
-2 -36 -15 -22 -19 -27 -29 -21 -50 5 -20 2 -26 -10 -26 -9 0 -16 -6 -16 -14
0 -22 -24 -26 -57 -10 -22 11 -42 13 -79 7 -29 -5 -67 -5 -92 1 -36 8 -41 12
-36 30 9 27 29 46 48 46 9 0 16 9 16 20 0 12 10 25 24 31 14 7 27 22 30 34 3
13 20 36 37 52 55 49 139 134 139 139 0 12 29 34 45 34 8 0 20 10 26 23 12 27
66 61 71 45 3 -7 11 -7 27 1 16 9 26 10 33 3 7 -7 19 -7 33 -2 24 9 71 8 80
-2 7 -7 58 40 73 67 10 19 22 22 107 28 22 2 50 7 62 11 12 4 24 3 27 -3 3 -5
15 -7 25 -4 10 3 22 0 25 -6 9 -14 46 1 81 33 15 14 31 24 36 23 5 -1 15 9 22
23 14 27 49 33 114 19 18 -4 35 -4 38 0 4 3 21 6 38 6 23 0 33 5 35 18 3 17
-1 18 -45 11 -26 -4 -55 -6 -63 -5 -8 0 -31 1 -50 1 -19 -1 -44 -1 -55 -1
-163 5 -275 5 -295 0 -14 -3 -42 -2 -62 1 -21 4 -41 3 -47 -3 -7 -7 -18 -7
-33 -1 -13 5 -48 8 -78 7 -30 -1 -106 -2 -167 -3 -113 0 -143 -5 -143 -21 0
-4 -10 -19 -22 -32 -34 -37 -68 -78 -68 -84 0 -8 -72 -73 -82 -73 -5 0 -7 -4
-4 -9 6 -10 -47 -81 -71 -95 -22 -12 -53 -44 -53 -55 0 -12 -54 -65 -71 -70
-8 -2 -33 -4 -56 -6 -23 -2 -46 -5 -51 -9 -5 -3 -15 0 -21 7 -8 10 -28 11 -83
5 -40 -4 -83 -6 -95 -3 -15 3 -23 1 -24 -7 0 -7 -2 -23 -5 -35 -2 -13 0 -23 5
-23 5 0 5 -20 0 -47 -5 -25 -7 -48 -4 -51 5 -6 28 -5 143 1 45 2 84 1 87 -3 2
-3 25 -6 50 -6 47 1 48 0 45 -50 -1 -18 4 -35 10 -39 8 -5 8 -11 -1 -21 -6 -7
-9 -25 -5 -38 l6 -24 -91 1 c-77 1 -88 3 -73 14 21 16 11 17 -17 3 -13 -7 -19
-7 -19 0 0 5 4 10 10 10 14 0 31 38 34 76 3 31 2 32 -18 22 -20 -11 -20 -11
-1 -19 16 -6 17 -8 3 -8 -9 -1 -21 5 -25 13 -5 9 -15 11 -28 5 -13 -5 -15 -8
-5 -9 12 0 12 -2 -2 -11 -9 -5 -15 -16 -12 -23 3 -8 -4 -16 -20 -20 -37 -9
-32 -23 6 -18 30 5 32 3 19 -12 -9 -11 -18 -13 -25 -7 -7 6 -17 6 -26 1 -8 -6
-25 -10 -37 -10 -18 0 -23 6 -23 28 0 15 7 40 15 56 10 19 12 33 6 39 -14 14
-42 0 -48 -23 -3 -11 -9 -20 -13 -20 -5 0 -23 -14 -41 -32 -30 -31 -36 -32
-114 -34 -46 -1 -88 -5 -94 -8 -5 -4 -18 5 -27 19 -16 25 -16 27 7 43 13 9 27
16 32 14 4 -1 12 9 17 23 5 14 16 25 25 25 8 0 15 7 15 15 0 9 23 37 50 64 28
27 50 53 50 58 0 5 11 15 25 21 14 6 25 17 25 23 0 6 16 25 35 42 19 17 35 39
35 49 0 10 5 18 12 18 6 0 26 11 45 26 18 14 33 22 33 18 0 -3 6 -1 13 5 8 6
16 8 19 5 8 -7 138 121 138 136 0 6 4 9 9 6 5 -3 11 4 15 17 3 12 15 27 28 32
13 6 22 16 20 23 -1 7 5 12 13 12 14 0 19 11 16 38 -1 7 9 12 22 12 14 0 27 7
30 15 8 19 -1 23 -38 19 -56 -5 -390 -5 -412 0 -13 2 -25 2 -27 -2 -4 -7 -180
-7 -226 0 -14 2 -47 2 -75 0z m530 -743 c-6 -9 -35 -1 -35 10 0 4 3 11 7 14 8
9 34 -13 28 -24z m806 -879 c3 -19 5 -25 18 -48 7 -13 10 -29 8 -37 -3 -7 -1
-17 5 -23 8 -8 8 -15 1 -24 -9 -12 -10 -92 -1 -128 2 -11 -4 -14 -20 -12 -13
2 -29 -1 -35 -6 -16 -12 -87 -3 -88 12 0 6 -1 31 -1 56 0 29 -6 49 -17 57 -12
9 -14 16 -5 30 6 10 10 35 9 56 -1 20 2 37 7 37 4 0 8 7 8 16 0 14 7 16 40 11
22 -3 40 -1 40 4 0 12 30 11 31 -1z"/>
<path d="M2719 2936 c-3 -3 -29 -7 -59 -8 -32 -2 -55 -8 -58 -15 -2 -8 5 -13
20 -13 48 0 49 -14 3 -58 -25 -23 -45 -49 -45 -58 0 -9 -9 -18 -20 -21 -11 -3
-20 -11 -20 -18 0 -6 -9 -20 -20 -30 -11 -10 -20 -24 -20 -32 0 -7 -3 -12 -7
-11 -18 5 -54 -15 -49 -27 5 -13 -42 -65 -60 -65 -5 -1 -20 -15 -34 -32 -14
-17 -40 -47 -57 -67 -18 -19 -35 -42 -38 -51 -3 -9 -19 -21 -35 -27 l-31 -12
5 -76 c2 -42 7 -79 10 -82 2 -3 0 -17 -5 -31 -5 -14 -7 -33 -3 -41 12 -26 14
-61 3 -61 -12 0 -7 -173 6 -182 6 -4 2 -8 -7 -8 -20 0 -24 -15 -8 -25 6 -4 8
-16 4 -28 -4 -12 -6 -134 -6 -271 1 -219 4 -250 18 -261 16 -11 16 -12 -1 -19
-12 -4 -14 -10 -7 -19 11 -13 22 -114 14 -122 -8 -8 -8 -105 -1 -105 4 0 4
-15 0 -32 -3 -18 -5 -40 -5 -48 1 -8 2 -33 3 -55 l1 -40 66 0 c36 0 68 -3 70
-7 6 -9 64 -7 64 3 0 7 22 6 118 -7 36 -5 52 -3 52 5 0 14 33 14 47 0 8 -8 17
-8 33 1 17 9 25 9 39 -4 16 -15 19 -15 34 2 10 10 17 24 17 30 0 6 10 18 23
27 22 16 32 64 14 76 -5 4 -3 15 4 27 10 16 11 24 2 33 -8 8 -9 19 -2 36 6 16
6 30 0 37 -6 7 -7 27 -2 46 9 42 8 121 -2 137 -4 6 -3 14 3 18 13 8 13 45 0
45 -6 0 -8 10 -5 23 10 38 11 347 1 347 -4 0 -5 21 0 48 4 26 7 60 6 76 -1 16
3 37 8 47 7 12 7 20 -1 24 -6 4 -8 13 -5 20 2 7 2 16 -2 20 -11 11 -12 79 0
92 8 10 8 17 0 25 -9 9 -8 16 3 28 14 15 14 19 1 29 -10 9 -12 20 -6 40 10 35
2 81 -14 81 -6 0 -19 -8 -27 -17 -56 -62 -97 -80 -169 -76 -120 6 -175 6 -194
-2 -11 -5 -21 -3 -26 5 -7 11 -14 11 -33 3 -28 -13 -37 -8 -37 19 0 11 7 18
21 18 13 0 23 10 30 30 6 17 15 30 21 30 13 0 47 41 48 58 0 11 13 16 33 13 4
0 7 5 7 11 0 7 14 22 30 33 16 11 30 25 30 32 0 6 9 15 20 18 11 3 20 13 20
22 0 8 28 42 63 75 64 61 138 104 163 94 9 -3 12 -1 9 4 -3 6 -3 16 2 22 4 7
8 66 8 130 1 115 0 118 -21 118 -12 0 -29 2 -36 5 -8 3 -16 3 -19 1z m-399
-1376 c0 -23 18 -27 26 -5 5 11 16 13 51 8 32 -4 47 -2 53 8 7 11 12 10 28 -4
21 -19 42 -22 42 -6 0 7 9 9 23 5 44 -13 54 -14 67 -6 8 5 21 5 31 0 13 -7 16
-22 15 -70 -1 -33 -7 -65 -13 -71 -10 -10 -148 -24 -218 -21 -16 0 -56 2 -88
2 -57 2 -59 3 -54 27 2 13 1 40 -3 59 -5 19 -4 37 1 40 5 3 9 11 8 17 -3 26 2
37 16 37 8 0 15 -9 15 -20z"/>
<path d="M3165 2932 c-13 -9 -16 -24 -21 -108 -2 -39 1 -86 6 -104 5 -18 6
-38 2 -44 -10 -13 -6 -291 4 -307 4 -7 3 -10 -2 -6 -6 3 -9 -105 -9 -269 0
-151 -3 -274 -7 -274 -4 0 -4 -10 1 -22 5 -13 7 -43 4 -68 -2 -25 -4 -49 -3
-55 1 -18 10 -170 10 -180 0 -5 -2 -57 -4 -115 -2 -62 0 -110 6 -117 7 -9 6
-15 -6 -19 -14 -5 -14 -7 0 -21 9 -9 12 -19 7 -22 -8 -6 -10 -213 -2 -256 2
-11 14 -30 27 -43 18 -17 27 -20 43 -12 22 12 25 26 7 33 -7 3 11 3 40 0 28
-2 52 0 52 5 0 16 -42 47 -64 47 -11 0 -20 6 -18 13 1 6 -4 12 -10 13 -7 0 -3
4 10 10 14 5 20 13 16 21 -5 8 -2 9 10 5 10 -4 19 -1 22 7 8 22 -14 55 -42 62
-22 6 -23 8 -8 19 12 8 14 14 6 19 -7 4 -12 17 -12 30 0 12 -6 28 -12 35 -11
11 -8 12 13 7 23 -5 28 -1 39 25 11 25 11 32 0 39 -11 7 -10 12 4 25 9 10 15
24 12 32 -5 11 3 14 37 11 39 -3 42 -1 45 25 2 15 7 27 11 27 5 0 6 -12 3 -26
-5 -28 2 -28 40 5 20 17 15 33 -9 24 -11 -4 -14 -2 -11 8 6 19 78 21 78 3 0
-8 5 -14 11 -14 6 0 8 -13 5 -30 -2 -17 0 -30 6 -30 6 0 8 -6 5 -13 -3 -8 -2
-20 3 -27 9 -15 -10 -40 -25 -33 -5 2 -3 -2 6 -9 12 -10 16 -29 16 -68 -1 -30
3 -79 7 -108 7 -46 6 -55 -10 -66 -10 -8 -24 -12 -31 -9 -16 6 -17 -9 -2 -24
8 -8 8 -13 0 -17 -16 -11 -31 2 -24 21 5 13 2 15 -20 9 -18 -4 -27 -2 -27 6 0
6 -8 3 -19 -8 -10 -10 -16 -23 -14 -27 3 -5 10 -4 16 2 7 7 19 5 40 -5 16 -9
40 -14 53 -11 26 5 59 -23 36 -30 -6 -3 -9 -9 -6 -15 4 -7 0 -7 -12 -1 -11 5
-32 6 -49 2 -24 -5 -25 -7 -7 -8 12 0 22 -5 22 -10 0 -5 12 -9 28 -9 15 1 36
-2 47 -5 31 -10 77 7 86 31 5 12 4 22 0 22 -18 0 -20 32 -5 56 9 13 12 24 6
24 -5 0 -13 7 -16 15 -4 11 0 15 11 13 23 -4 29 22 6 28 -15 4 -18 12 -15 36
3 22 0 33 -12 40 -13 7 -16 17 -11 39 4 19 2 36 -7 46 -10 12 -10 17 -1 20 7
3 10 15 8 31 -13 71 -11 110 6 150 22 51 23 56 8 46 -8 -5 -10 1 -5 19 3 14 2
27 -3 29 -11 4 -25 49 -14 47 20 -3 21 3 8 40 -7 22 -11 41 -9 44 3 3 7 36 9
73 2 38 4 72 4 77 1 4 8 7 16 7 20 0 55 31 48 43 -3 4 -15 -1 -28 -13 -29 -27
-40 -13 -36 44 1 21 -2 42 -8 45 -12 8 3 84 18 89 15 5 14 27 -3 41 -14 12
-16 35 -3 47 4 4 2 13 -4 21 -9 10 -8 13 0 13 8 0 10 8 6 21 -9 28 -14 112 -8
123 4 5 7 25 9 44 3 32 24 72 24 45 0 -6 9 -13 19 -16 18 -4 18 -3 -1 29 -17
30 -18 35 -5 40 9 3 24 4 34 1 15 -3 14 -6 -7 -15 -18 -8 -20 -11 -7 -11 9 -1
17 -8 17 -16 0 -21 16 -19 40 5 41 41 14 64 -59 49 -18 -4 -44 -3 -57 2 -19 6
-24 5 -24 -6 0 -8 -4 -15 -10 -15 -5 0 -10 -7 -10 -15 0 -9 -9 -15 -23 -15
-30 0 -47 -33 -43 -85 1 -22 -1 -51 -6 -64 -7 -18 -5 -27 6 -33 17 -9 10 -49
-11 -61 -18 -11 -16 -25 5 -31 13 -5 17 -17 17 -56 0 -45 -2 -50 -22 -50 -31
0 -40 20 -17 38 13 10 15 16 7 19 -8 3 -13 25 -14 56 l0 52 -16 -32 c-18 -37
-42 -46 -60 -23 -6 8 -15 12 -18 8 -12 -12 4 -56 23 -61 16 -4 16 -5 0 -6 -11
-1 -15 -6 -12 -16 5 -11 -1 -15 -21 -15 -14 0 -24 -4 -20 -9 3 -5 1 -12 -5
-16 -5 -3 -10 -12 -10 -18 0 -8 3 -8 8 -2 4 6 20 16 36 23 24 11 31 11 38 0 8
-10 11 -10 15 0 7 17 23 15 23 -4 0 -12 -7 -15 -25 -12 -14 3 -28 1 -31 -3 -3
-5 0 -9 6 -9 7 0 9 -9 6 -22 -3 -13 -3 -17 0 -10 5 10 10 9 25 -4 18 -16 19
-16 19 2 0 22 36 57 53 51 13 -4 18 -57 5 -57 -4 0 -8 5 -8 11 0 5 -5 7 -11 3
-7 -4 -8 -9 -1 -13 15 -9 27 -61 14 -61 -5 0 -12 9 -15 20 -3 11 -13 20 -23
20 -16 0 -16 -2 3 -22 11 -13 19 -29 17 -36 -1 -7 0 -8 3 -2 2 5 14 10 25 10
17 0 18 -3 8 -15 -9 -10 -9 -15 -1 -15 15 0 14 -33 -1 -48 -7 -7 -8 -12 -2
-12 5 0 9 -25 9 -55 0 -30 -3 -55 -7 -55 -5 0 -7 -19 -5 -42 l2 -43 -40 0
c-29 0 -40 -4 -40 -15 0 -8 -8 -18 -17 -22 -33 -14 -19 -26 16 -16 28 9 38 8
50 -4 13 -14 12 -17 -8 -28 -13 -7 -32 -9 -42 -6 -11 3 -25 2 -33 -3 -11 -7
-9 -10 8 -16 11 -3 21 -11 21 -16 0 -15 -33 -24 -38 -11 -6 18 -20 14 -27 -7
-4 -13 -12 -17 -31 -13 -18 3 -25 0 -24 -9 6 -43 -30 -56 -50 -19 -8 15 -6 21
10 30 11 6 20 15 20 21 0 6 -5 7 -10 4 -6 -3 -17 0 -25 9 -17 16 -20 46 -5 46
10 0 8 68 -5 113 -5 18 -3 37 6 53 10 20 11 29 1 45 -13 20 -9 39 9 39 5 0 9
-7 9 -16 0 -11 6 -14 20 -9 25 8 26 -3 3 -21 -17 -12 -16 -13 5 -14 12 0 22
-4 22 -9 0 -5 11 -4 24 2 47 22 17 87 -41 87 -13 0 -23 5 -23 12 0 6 -9 3 -20
-7 -21 -19 -28 -7 -8 13 9 9 9 12 -3 12 -12 0 -12 2 0 9 12 8 12 12 2 25 -8
10 -9 16 -3 16 7 0 8 10 2 29 -8 27 -6 30 25 35 27 5 35 12 40 37 9 40 0 47
-17 13 -7 -15 -23 -31 -35 -35 -29 -10 -31 6 -3 21 24 13 27 42 3 38 -13 -2
-17 5 -18 35 -1 21 2 40 6 42 4 3 1 27 -6 54 -7 28 -10 53 -6 56 3 4 7 11 7
16 1 5 2 13 3 17 0 5 18 9 38 10 20 1 41 6 46 11 14 14 -2 51 -22 51 -10 0
-17 8 -17 20 0 11 7 20 14 20 11 0 12 3 3 13 -6 8 -8 17 -4 21 4 3 -15 4 -41
1 -32 -4 -46 -3 -41 5 3 6 11 8 16 5 5 -4 9 3 9 15 0 11 13 33 29 49 16 15 32
38 36 50 3 11 12 21 18 21 15 1 77 56 77 70 0 5 4 10 8 10 5 0 19 9 32 20 13
11 20 20 16 20 -4 0 9 16 29 37 19 20 35 42 35 50 0 7 6 13 14 13 7 0 22 11
32 25 10 14 26 25 34 25 9 0 24 14 33 30 17 28 22 30 77 30 32 0 61 -3 64 -8
2 -4 37 -7 78 -6 92 2 88 1 88 19 0 21 36 59 48 51 5 -3 15 1 22 9 7 8 11 15
9 16 -2 0 -13 3 -24 5 -32 8 -193 7 -205 -1 -7 -4 -15 -3 -19 2 -7 10 -286 11
-297 1 -4 -4 -14 -3 -24 2 -10 5 -20 6 -24 3 -8 -8 -163 -8 -207 1 -19 3 -38
2 -44 -2z m84 -624 c-6 -11 -8 -26 -5 -33 3 -8 1 -17 -4 -20 -6 -4 -10 -1 -10
6 0 6 -8 18 -17 24 -17 13 -17 14 1 33 23 27 50 19 35 -10z m51 -58 c0 -5 -4
-10 -10 -10 -5 0 -10 5 -10 10 0 6 5 10 10 10 6 0 10 -4 10 -10z m130 -200 c0
-11 -4 -20 -10 -20 -5 0 -10 9 -10 20 0 11 5 20 10 20 6 0 10 -9 10 -20z m78
-573 c2 -10 -3 -17 -11 -17 -9 0 -17 -3 -20 -7 -2 -5 -2 -2 0 5 1 8 3 20 3 29
0 20 24 11 28 -10z m-258 -127 c0 -5 -5 -10 -11 -10 -5 0 -7 5 -4 10 3 6 8 10
11 10 2 0 4 -4 4 -10z m-5 -90 c-3 -5 -13 -10 -21 -10 -8 0 -14 5 -14 10 0 6
9 10 21 10 11 0 17 -4 14 -10z m-8 -26 c-3 -3 -12 -4 -19 -1 -8 3 -5 6 6 6 11
1 17 -2 13 -5z m283 -243 c0 -12 -20 -25 -27 -18 -7 7 6 27 18 27 5 0 9 -4 9
-9z"/>
<path d="M4307 2933 c-12 -3 -16 -11 -12 -23 4 -13 -2 -24 -21 -37 -14 -10
-47 -40 -73 -67 -25 -27 -56 -59 -68 -71 -13 -12 -23 -30 -23 -39 0 -9 -8 -16
-20 -16 -11 0 -20 -3 -20 -7 0 -5 -22 -32 -49 -61 -27 -29 -51 -56 -53 -60 -2
-4 -20 -21 -40 -36 -21 -16 -38 -36 -38 -45 0 -9 -16 -25 -35 -35 -19 -11 -36
-26 -37 -35 -5 -53 -5 -77 0 -85 3 -6 7 -33 8 -60 1 -28 6 -64 10 -80 5 -21 3
-31 -9 -37 -10 -6 -14 -17 -10 -32 3 -12 8 -37 10 -56 5 -33 5 -33 -14 -15
-14 13 -17 23 -10 32 7 9 4 12 -12 12 -25 0 -26 -4 -7 -38 28 -51 37 -94 24
-109 -9 -11 -9 -16 1 -22 10 -6 14 -91 5 -91 -2 0 -13 4 -27 9 -25 10 -64 -5
-40 -15 7 -3 9 -12 6 -20 -3 -8 0 -21 7 -29 6 -8 9 -19 5 -25 -3 -5 -3 -16 2
-22 5 -8 10 6 13 37 4 41 9 50 25 52 16 1 16 1 3 -3 -19 -6 -25 -24 -9 -24 5
0 7 -8 4 -19 -2 -10 3 -25 11 -34 12 -12 14 -22 7 -40 -6 -14 -7 -28 -4 -31 4
-3 2 -6 -3 -6 -5 0 -8 -33 -7 -76 2 -69 1 -75 -17 -69 -10 3 -21 1 -25 -5 -3
-5 -15 -10 -26 -10 -14 0 -19 -7 -19 -25 0 -14 -3 -24 -7 -24 -24 4 -33 -4
-33 -29 0 -15 -5 -33 -12 -40 -15 -15 -10 -15 31 -1 31 11 42 28 19 30 -7 0
-4 4 7 9 30 13 35 12 35 -10 0 -17 3 -18 26 -10 14 6 26 10 28 10 1 0 2 -21 0
-47 -1 -27 2 -52 6 -58 13 -18 19 -72 8 -83 -6 -6 -7 -16 -2 -24 13 -20 12
-78 0 -78 -6 0 -17 -10 -24 -21 -13 -20 -12 -21 15 -16 15 4 23 4 16 1 -8 -3
-9 -14 -3 -34 5 -16 8 -35 6 -42 -2 -17 -21 -22 -21 -5 0 6 -6 16 -12 20 -19
12 -16 27 5 28 9 0 2 5 -16 10 -23 7 -32 15 -28 25 3 7 1 14 -3 14 -5 0 -12
-8 -15 -17 -6 -14 -9 -15 -15 -4 -6 10 -10 8 -15 -6 -5 -12 -1 -22 13 -32 26
-17 28 -51 4 -52 -11 0 -4 -7 16 -16 19 -8 45 -13 58 -10 25 5 38 -18 27 -47
-4 -10 -1 -16 7 -17 24 -2 33 -4 57 -13 13 -4 28 -3 35 2 7 6 46 8 87 6 41 -3
84 -4 95 -4 11 1 30 1 43 1 50 -2 58 -2 95 4 22 3 37 1 37 -5 0 -15 43 -12 78
6 30 15 32 18 25 57 -8 45 -8 196 0 289 3 32 2 58 -2 58 -4 0 -8 51 -8 114 0
63 -4 119 -7 125 -4 5 -2 12 4 16 6 4 7 11 4 17 -4 5 -6 52 -6 104 0 52 -4 97
-10 100 -5 3 -4 11 3 20 9 11 9 17 -1 29 -7 9 -9 22 -5 32 11 26 12 106 1 121
-5 7 -4 18 4 27 9 11 8 19 -4 36 -10 14 -12 27 -6 34 11 14 16 97 6 113 -4 7
-1 15 8 18 9 3 16 12 16 20 0 8 9 19 20 26 11 7 20 18 20 24 0 7 9 14 19 17
11 2 21 15 23 28 2 13 8 23 15 22 6 -1 34 22 62 52 28 30 55 55 61 55 5 0 12
11 16 24 3 14 18 29 35 36 16 7 29 19 29 26 0 8 5 14 10 14 6 0 10 7 10 15 0
8 7 15 15 15 8 0 15 8 15 18 0 13 19 28 58 48 31 16 60 28 64 27 4 -2 15 8 24
22 9 14 23 25 30 25 8 0 14 5 14 11 0 7 9 21 20 33 66 69 87 95 83 99 -2 3 10
9 26 15 23 8 29 15 24 27 -3 10 0 21 8 26 9 6 -3 9 -36 7 -27 -1 -65 2 -83 6
-21 5 -38 4 -47 -4 -8 -7 -15 -7 -19 -1 -4 6 -18 6 -34 1 -16 -4 -49 -6 -73
-3 -87 9 -379 8 -382 -1 -2 -5 -9 -6 -17 -1 -15 9 -67 14 -93 8z m228 -267
c22 -1 47 -6 55 -11 8 -5 22 -8 31 -7 13 2 15 -3 12 -23 -3 -14 -12 -25 -21
-25 -8 0 -12 -3 -9 -6 3 -4 -9 -22 -28 -41 -19 -19 -35 -38 -35 -42 0 -4 -17
-26 -37 -48 -21 -22 -49 -55 -63 -72 -14 -18 -35 -44 -47 -58 -13 -14 -23 -29
-23 -32 0 -3 -15 -22 -33 -42 -27 -29 -43 -37 -85 -43 -29 -4 -52 -3 -52 1 0
4 -58 7 -130 6 -150 -1 -157 4 -92 72 21 22 47 52 56 68 10 15 25 27 32 27 8
0 14 7 14 16 0 9 8 18 18 21 9 2 28 20 42 39 34 48 61 74 77 74 7 0 13 11 13
26 0 14 4 23 9 19 14 -8 41 23 35 40 -5 11 1 15 20 15 14 0 34 9 44 19 15 17
26 19 87 14 39 -3 88 -6 110 -7z m-561 -1067 c15 1 35 -4 42 -10 8 -6 14 -7
14 -2 0 10 137 9 205 -1 17 -3 38 -5 48 -5 11 -1 15 -5 11 -13 -4 -6 -6 -31
-5 -56 2 -53 -7 -85 -20 -77 -5 4 -9 1 -9 -5 0 -8 -6 -8 -20 0 -15 8 -22 8
-25 -2 -5 -13 -41 -17 -61 -7 -23 12 -165 -1 -176 -16 -5 -6 -12 -5 -20 3 -6
6 -20 12 -29 12 -24 0 -29 21 -11 48 8 12 10 22 5 22 -5 0 -9 21 -8 46 0 25
-3 48 -7 50 -18 11 -7 26 15 19 12 -4 35 -6 51 -6z m-139 -169 c3 -5 1 -10 -4
-10 -6 0 -11 5 -11 10 0 6 2 10 4 10 3 0 8 -4 11 -10z"/>
<path d="M5502 2929 c-18 -4 -41 -5 -51 -2 -11 3 -22 -5 -31 -23 -19 -34 -86
-104 -101 -104 -6 0 -9 -6 -6 -14 3 -8 -2 -16 -11 -18 -9 -3 -24 -18 -32 -34
-8 -16 -27 -41 -42 -56 -16 -15 -28 -33 -28 -39 0 -13 -87 -99 -99 -99 -4 0
-13 -9 -21 -20 -10 -14 -21 -18 -38 -13 -39 9 -116 9 -129 0 -8 -6 -18 -5 -26
1 -7 6 -26 9 -41 6 -15 -2 -33 -1 -40 4 -6 5 -25 5 -43 0 -31 -8 -33 -11 -33
-52 0 -26 5 -46 13 -49 10 -4 10 -6 0 -6 -15 -1 -17 -39 -4 -60 6 -9 11 -10
15 -3 4 7 30 9 69 6 34 -3 96 -7 137 -9 41 -1 83 -6 93 -10 19 -8 23 -45 5
-45 -10 0 -10 -2 0 -9 9 -5 12 -23 9 -52 -3 -36 -8 -45 -25 -47 -12 -2 -22 -9
-22 -15 0 -7 -5 -6 -11 3 -8 11 -12 12 -16 3 -5 -14 -43 -18 -43 -4 0 4 -54 7
-120 7 -121 -2 -136 3 -107 33 9 10 9 15 0 18 -12 4 -6 33 8 43 4 3 4 12 -1
19 -6 11 -17 5 -48 -27 -22 -23 -44 -42 -49 -42 -4 0 -9 -40 -11 -90 -2 -67 1
-90 10 -90 10 0 9 -3 -1 -9 -12 -8 -12 -14 -1 -40 10 -25 10 -34 0 -46 -8 -10
-9 -19 -2 -27 5 -7 6 -22 2 -33 -4 -11 -4 -29 -1 -40 4 -11 6 -42 4 -70 -1
-27 -3 -57 -3 -65 0 -8 1 -52 1 -98 1 -46 -1 -85 -4 -88 -3 -3 -1 -20 4 -37 6
-22 6 -39 -2 -54 -9 -17 -9 -26 0 -37 8 -10 9 -16 1 -21 -5 -3 -8 -23 -5 -43
3 -20 7 -69 8 -108 2 -39 7 -76 11 -83 4 -6 4 -11 -1 -11 -9 0 -9 -137 0 -147
4 -3 2 -12 -3 -18 -7 -8 -5 -23 4 -47 l15 -35 205 1 c114 1 206 -2 206 -6 0
-4 13 -6 29 -6 26 1 30 5 33 40 2 22 0 42 -4 44 -5 3 -6 17 -3 32 2 14 -1 32
-7 39 -7 9 -7 13 1 13 8 0 11 30 10 92 -1 111 -1 116 9 101 4 -6 19 -13 34
-15 14 -2 32 -9 39 -15 8 -6 23 -7 34 -3 11 4 28 3 38 -2 10 -5 21 -7 24 -4 4
3 12 1 20 -5 9 -8 17 -8 26 -1 13 10 56 -1 58 -15 0 -4 3 -21 6 -38 10 -64 8
-141 -4 -173 -7 -17 -10 -32 -5 -32 4 0 8 -12 7 -26 0 -22 5 -27 27 -30 16 -1
34 4 42 12 8 8 19 14 24 14 6 0 13 8 17 17 14 35 20 224 13 401 -2 41 0 76 5
79 4 2 3 13 -3 23 -7 13 -7 21 1 26 7 4 8 22 4 53 -5 25 -7 62 -7 81 6 172 5
194 -5 197 -7 3 -6 13 4 33 8 17 11 35 7 42 -14 22 -16 88 -3 88 8 0 9 3 0 13
-6 8 -8 16 -5 20 5 5 9 164 4 177 -9 26 -9 64 1 76 8 9 8 22 1 41 -5 16 -6 38
-1 51 6 16 5 22 -6 22 -8 0 -18 -6 -22 -14 -4 -7 -18 -18 -30 -25 -13 -6 -23
-18 -23 -26 0 -8 -6 -14 -12 -13 -16 4 -19 -23 -21 -177 -2 -117 -3 -120 -24
-117 -12 2 -24 -2 -28 -8 -5 -8 -11 -8 -21 1 -19 16 -94 22 -94 8 0 -6 -9 -9
-20 -6 -11 3 -20 0 -20 -6 0 -8 -3 -8 -8 -2 -4 6 -13 10 -19 11 -7 1 -17 2
-22 3 -6 0 -9 23 -9 49 1 26 -1 53 -5 59 -4 6 -1 13 5 16 10 3 10 7 1 17 -8 9
-9 17 -1 30 7 10 8 25 3 36 -13 31 -14 48 -4 60 5 7 7 24 3 38 -5 20 -2 26 9
26 9 0 18 8 21 18 3 9 31 42 61 72 30 30 55 61 55 68 0 6 7 12 15 12 9 0 18 7
21 15 4 8 12 15 20 15 8 0 14 3 14 8 0 6 12 22 59 78 5 6 20 19 33 30 47 38
88 117 67 130 -5 3 -3 14 4 25 10 13 12 33 7 66 -4 26 -5 53 -3 60 10 25 -11
40 -45 32z"/>
<path d="M3732 2388 c-14 -14 -16 -28 -3 -28 9 0 24 30 18 36 -2 2 -9 -2 -15
-8z"/>
<path d="M3350 2380 c0 -5 6 -10 14 -10 8 0 18 5 21 10 3 6 -3 10 -14 10 -12
0 -21 -4 -21 -10z"/>
<path d="M3306 2357 c3 -10 9 -15 12 -12 3 3 0 11 -7 18 -10 9 -11 8 -5 -6z"/>
<path d="M3405 2350 c-18 -8 -18 -9 -2 -9 10 -1 15 -6 12 -11 -7 -12 12 -40
26 -40 11 0 5 63 -7 66 -5 2 -18 -1 -29 -6z"/>
<path d="M2775 2319 c-12 -18 3 -22 20 -5 14 14 14 16 1 16 -8 0 -18 -5 -21
-11z"/>
<path d="M890 2279 c0 -5 5 -7 10 -4 6 3 10 8 10 11 0 2 -4 4 -10 4 -5 0 -10
-5 -10 -11z"/>
<path d="M3340 2280 c0 -5 7 -10 15 -10 23 0 18 -18 -7 -22 -12 -2 -23 -9 -26
-15 -6 -19 44 -16 68 4 26 23 27 46 1 38 -11 -3 -22 -1 -26 5 -8 13 -25 13
-25 0z"/>
<path d="M1030 2251 c0 -6 5 -13 10 -16 6 -3 10 1 10 9 0 9 -4 16 -10 16 -5 0
-10 -4 -10 -9z"/>
<path d="M3400 2226 c0 -9 7 -16 16 -16 17 0 14 22 -4 28 -7 2 -12 -3 -12 -12z"/>
<path d="M845 2220 c-7 -12 2 -30 16 -30 5 0 9 9 9 20 0 21 -15 27 -25 10z"/>
<path d="M3355 2200 c3 -5 10 -10 16 -10 5 0 9 5 9 10 0 6 -7 10 -16 10 -8 0
-12 -4 -9 -10z"/>
<path d="M3300 2169 c0 -4 7 -10 16 -13 22 -8 24 -8 18 7 -5 14 -34 19 -34 6z"/>
<path d="M3397 2174 c-8 -8 1 -24 14 -24 5 0 9 7 9 15 0 15 -12 20 -23 9z"/>
<path d="M3615 2140 c3 -5 8 -10 11 -10 2 0 4 5 4 10 0 6 -5 10 -11 10 -5 0
-7 -4 -4 -10z"/>
<path d="M3267 2114 c6 -15 23 -19 23 -5 0 5 -7 11 -14 14 -10 4 -13 1 -9 -9z"/>
<path d="M3760 2123 c0 -5 5 -15 10 -23 8 -13 11 -13 22 -1 10 10 10 12 1 7
-8 -4 -13 -1 -13 8 0 9 -4 16 -10 16 -5 0 -10 -3 -10 -7z"/>
<path d="M3328 2053 c7 -3 16 -2 19 1 4 3 -2 6 -13 5 -11 0 -14 -3 -6 -6z"/>
<path d="M3255 2041 c-3 -5 -1 -12 5 -16 12 -7 30 2 30 16 0 12 -27 12 -35 0z"/>
<path d="M4478 2019 c-13 -7 -16 -17 -11 -39 3 -17 0 -36 -7 -44 -6 -9 -9 -24
-5 -36 4 -12 1 -28 -6 -37 -11 -13 -10 -17 5 -29 13 -9 16 -19 11 -31 -15 -36
-20 -162 -12 -311 1 -40 -1 -76 -6 -79 -6 -3 -2 -12 8 -19 12 -9 15 -19 10
-31 -5 -10 -7 -22 -6 -27 1 -4 -4 -14 -10 -22 -9 -10 -9 -17 0 -28 17 -21 15
-165 -3 -208 -6 -13 -1 -19 21 -23 15 -3 36 -11 46 -16 31 -17 45 5 43 66 0
30 3 55 8 55 5 0 3 6 -3 14 -9 10 -9 16 -1 21 8 5 8 10 0 20 -8 10 -8 15 0 20
7 5 8 11 1 19 -5 6 -8 24 -7 39 2 15 -3 39 -11 54 -13 24 -12 29 2 40 11 7 14
17 9 25 -9 14 -13 268 -4 268 3 0 6 27 7 60 2 37 -1 60 -8 60 -6 0 -8 9 -4 20
4 12 1 27 -5 35 -7 9 -9 22 -5 32 5 10 7 22 6 27 -1 5 4 13 11 17 9 6 10 9 1
9 -7 0 -15 17 -19 38 -9 49 -24 60 -56 41z m36 -44 c3 -8 3 -15 0 -15 -3 0
-12 7 -20 15 -13 13 -13 15 -1 15 8 0 17 -7 21 -15z"/>
<path d="M3345 1990 c-3 -5 -1 -10 4 -10 6 0 11 5 11 10 0 6 -2 10 -4 10 -3 0
-8 -4 -11 -10z"/>
<path d="M3315 1950 c-3 -5 -1 -10 4 -10 6 0 11 5 11 10 0 6 -2 10 -4 10 -3 0
-8 -4 -11 -10z"/>
<path d="M3751 1941 c-8 -14 -7 -20 3 -24 18 -7 26 1 26 25 0 24 -17 23 -29
-1z"/>
<path d="M3682 1921 c2 -7 7 -12 11 -12 12 1 9 15 -3 20 -7 2 -11 -2 -8 -8z"/>
<path d="M3300 1909 c0 -5 5 -7 10 -4 6 3 10 8 10 11 0 2 -4 4 -10 4 -5 0 -10
-5 -10 -11z"/>
<path d="M3267 1894 c-8 -8 1 -24 14 -24 5 0 9 7 9 15 0 15 -12 20 -23 9z"/>
<path d="M3330 1880 c0 -5 5 -10 11 -10 5 0 7 5 4 10 -3 6 -8 10 -11 10 -2 0
-4 -4 -4 -10z"/>
<path d="M3368 1873 c7 -3 16 -2 19 1 4 3 -2 6 -13 5 -11 0 -14 -3 -6 -6z"/>
<path d="M3421 1863 c0 -7 -6 -13 -12 -13 -17 0 -43 -30 -33 -40 15 -14 57 24
51 46 -2 10 -5 13 -6 7z"/>
<path d="M3267 1830 c-4 -17 -2 -20 14 -15 11 4 19 2 19 -4 0 -6 4 -11 10 -11
11 0 1 32 -14 42 -17 12 -23 9 -29 -12z"/>
<path d="M3680 1846 c0 -2 7 -7 16 -10 8 -3 12 -2 9 4 -6 10 -25 14 -25 6z"/>
<path d="M3410 1800 c0 -5 7 -10 16 -10 8 0 12 5 9 10 -3 6 -10 10 -16 10 -5
0 -9 -4 -9 -10z"/>
<path d="M3710 1780 c0 -5 5 -10 11 -10 5 0 7 5 4 10 -3 6 -8 10 -11 10 -2 0
-4 -4 -4 -10z"/>
<path d="M3680 1749 c0 -5 5 -7 10 -4 6 3 10 8 10 11 0 2 -4 4 -10 4 -5 0 -10
-5 -10 -11z"/>
<path d="M3420 1721 c0 -4 12 -13 26 -20 20 -9 25 -9 22 0 -5 14 -48 32 -48
20z"/>
<path d="M3670 1720 c-12 -7 -12 -12 -3 -21 10 -10 14 -9 19 5 8 22 2 27 -16
16z"/>
<path d="M3710 1705 c0 -9 6 -12 15 -9 8 4 15 10 15 15 0 5 -7 9 -15 9 -8 0
-15 -7 -15 -15z"/>
<path d="M3376 1665 c-29 -12 -29 -13 -7 -20 22 -7 51 8 51 26 0 11 -8 10 -44
-6z"/>
<path d="M3660 1631 c0 -5 3 -17 6 -26 5 -13 8 -14 15 -3 12 19 11 25 -6 32
-8 3 -15 1 -15 -3z"/>
<path d="M3365 1619 c-19 -7 -19 -8 3 -8 13 -1 20 -5 17 -11 -3 -5 1 -10 9
-10 8 0 18 5 21 10 3 6 0 10 -9 10 -8 0 -16 4 -18 9 -1 4 -12 5 -23 0z"/>
<path d="M3270 1600 c19 -13 30 -13 30 0 0 6 -10 10 -22 10 -19 0 -20 -2 -8
-10z"/>
<path d="M3350 1570 c0 -5 5 -10 11 -10 5 0 7 5 4 10 -3 6 -8 10 -11 10 -2 0
-4 -4 -4 -10z"/>
<path d="M3702 1568 c2 -6 16 -12 31 -14 35 -4 34 2 -4 15 -22 8 -29 7 -27 -1z"/>
<path d="M3620 1559 c0 -5 5 -7 10 -4 6 3 10 8 10 11 0 2 -4 4 -10 4 -5 0 -10
-5 -10 -11z"/>
<path d="M3325 1530 c3 -5 -1 -10 -9 -10 -9 0 -16 -4 -16 -10 0 -18 35 -11 48
10 11 18 10 20 -9 20 -11 0 -17 -4 -14 -10z"/>
<path d="M3285 1470 c3 -5 8 -10 11 -10 2 0 4 5 4 10 0 6 -5 10 -11 10 -5 0
-7 -4 -4 -10z"/>
<path d="M3660 1470 c0 -5 4 -10 9 -10 6 0 13 5 16 10 3 6 -1 10 -9 10 -9 0
-16 -4 -16 -10z"/>
<path d="M3621 1444 c0 -11 3 -14 6 -6 3 7 2 16 -1 19 -3 4 -6 -2 -5 -13z"/>
<path d="M3590 1395 c0 -8 5 -15 10 -15 6 0 10 7 10 15 0 8 -4 15 -10 15 -5 0
-10 -7 -10 -15z"/>
<path d="M3630 1359 c0 -5 5 -7 10 -4 6 3 10 8 10 11 0 2 -4 4 -10 4 -5 0 -10
-5 -10 -11z"/>
<path d="M3430 1339 c0 -5 9 -9 20 -9 11 0 20 2 20 4 0 2 -9 6 -20 9 -11 3
-20 1 -20 -4z"/>
<path d="M3654 1316 c-6 -17 2 -36 17 -36 12 0 12 37 -1 45 -6 3 -13 -1 -16
-9z"/>
<path d="M3460 1290 c0 -5 5 -10 10 -10 6 0 10 5 10 10 0 6 -4 10 -10 10 -5 0
-10 -4 -10 -10z"/>
<path d="M3455 1200 c3 -5 8 -10 11 -10 2 0 4 5 4 10 0 6 -5 10 -11 10 -5 0
-7 -4 -4 -10z"/>
<path d="M3460 1140 c0 -5 9 -10 21 -10 11 0 17 5 14 10 -3 6 -13 10 -21 10
-8 0 -14 -4 -14 -10z"/>
<path d="M3648 1113 c7 -3 16 -2 19 1 4 3 -2 6 -13 5 -11 0 -14 -3 -6 -6z"/>
<path d="M3455 1030 c-3 -5 -1 -10 4 -10 6 0 11 5 11 10 0 6 -2 10 -4 10 -3 0
-8 -4 -11 -10z"/>
<path d="M3645 1000 c-3 -5 3 -10 14 -10 12 0 21 5 21 10 0 6 -6 10 -14 10 -8
0 -18 -4 -21 -10z"/>
<path d="M3378 913 c7 -3 16 -2 19 1 4 3 -2 6 -13 5 -11 0 -14 -3 -6 -6z"/>
</g>
</svg>
